<svg xmlns="http://www.w3.org/2000/svg" viewBox="0 0 46 46" enable-background="new 0 0 46 46">
<path d="m34.437 29.27c-.997-.384-2.084-.355-3.06.077-2.02.895-2.928 3.262-2.033 5.278.434.977 1.221 1.726 2.218 2.109.467.18.953.27 1.438.27.552 0 1.103-.116 1.621-.346 2.02-.895 2.928-3.262 2.033-5.278-.433-.977-1.22-1.726-2.217-2.11m-.626 5.559c-.001 0-.001 0 0 0-.488.217-1.032.23-1.53.039-.498-.192-.892-.566-1.108-1.055-.447-1.01.009-2.191 1.017-2.638.259-.115.534-.173.81-.173.243 0 .486.045.72.135.498.192.892.566 1.108 1.055.446 1.01-.01 2.19-1.017 2.637"></path>
<path d="m45.43 34.737c-.001-.001-.036-.021-.038-.021-.003-.002-.006-.003-.009-.005l-1.924-1.066c.021-.564.007-1.155-.045-1.717l.062-.144c.301-.187.604-.37.907-.554l.993-.604c.391-.239.569-.712.434-1.149-.388-1.253-.919-2.446-1.579-3.546-.026-.045-.058-.087-.091-.126-.042-.056-.089-.108-.143-.155-.259-.229-.617-.307-.944-.21l-.467.137c-.532.156-1.063.312-1.595.472-.082.022-.119.02-.165-.022-.388-.417-.816-.824-1.309-1.244.159-.694.332-1.385.507-2.083.02-.081.031-.162.033-.242.064-.418-.143-.836-.521-1.036-1.159-.611-2.38-1.08-3.629-1.394-.433-.109-.898.099-1.121.49-.003.005-.049.087-.052.092l-1.013 1.861-.078.063c-.614-.018-1.226-.002-1.884.005-.38-.603-.747-1.214-1.114-1.824-.29-.481-.833-.675-1.361-.478l-.48.177c-.339.124-.678.247-1.013.383-.563.228-1.153.524-1.801.904-.238.139-.379.316-.461.486-.125.22-.165.486-.098.744l.64 2.159c0 .023.001.041-.063.099-.384.343-.757.736-1.176 1.235l-.135.039-2.157-.521c-.448-.106-.902.102-1.116.504-.067.127-.124.258-.181.389l-.115.25c-.021.042-.038.084-.047.111-.479 1.023-.824 1.963-1.055 2.872-.045.18-.036.365.018.535.073.291.265.54.542.687l1.852 1c.074.04.094.067.099.138-.024.592-.01 1.173.013 1.775-.271.173-.546.339-.82.505l-1.097.667c-.279.169-.454.477-.477.8-.009.075-.01.151-.002.227.007.065.022.145.041.207.033.105.072.208.113.31l.048.124c.002.005.032.099.034.104l.05.125c.378 1.059.798 1.974 1.287 2.8.2.339.652.666 1.266.481l.512-.152c.518-.154 1.035-.309 1.625-.454.42.438.871.866 1.342 1.319l-.519 2.137c-.067.279-.005.574.155.808.161.265.398.395.499.45.019.011.104.057.124.066.746.377 1.522.695 2.306.948.226.072.455.137.685.201l.229.064c.122.037.239.055.35.055.437 0 .777-.263.946-.576.289-.537.582-1.073.875-1.609l.145-.265c0-.001.104-.075.104-.075.63.018 1.206.005 1.774-.046l.105.063c.138.221.273.443.409.666l.749 1.227c.238.39.713.565 1.146.434 1.252-.386 2.447-.916 3.555-1.575.308-.184.475-.563.469-.93.004-.116-.011-.235-.042-.339-.166-.552-.33-1.105-.493-1.659l-.123-.423c.407-.393.814-.817 1.211-1.265l.184-.13 2.137.516c.447.106.903-.102 1.117-.504.611-1.155 1.082-2.374 1.398-3.623.111-.435-.142-.924-.537-1.146m-24.07 2.151l.127-.068.015.023-.142.045m.78-9.24l-.137-.07.143.047-.006.023m21 10.233l-1.401-.338c-.348-.081-.691-.079-1.024.007-.119.03-.232.083-.333.154l-.506.359c-.062.045-.121.097-.172.155-.386.438-.781.853-1.174 1.232-.408.393-.627.919-.614 1.514.009.178.04.356.092.531l.114.386c.1.338.199.676.3 1.013-.556.292-1.133.548-1.727.766l-.331-.541c-.14-.23-.279-.46-.421-.687-.438-.702-1.163-1.07-1.974-.996-.491.041-1 .055-1.542.038-.812.013-1.522.384-1.921 1.116l-.145.265c-.178.325-.355.651-.532.977-.062-.018-.122-.037-.183-.057-.522-.168-1.042-.37-1.579-.62l.346-1.418c.041-.177.062-.359.062-.572-.018-.562-.266-1.078-.697-1.451-.424-.367-.83-.753-1.21-1.149-.542-.562-1.292-.758-2.064-.539-.467.134-.934.273-1.4.412-.271-.53-.521-1.11-.756-1.762l.413-.25c.289-.175.578-.35.863-.531.544-.348.877-.886.943-1.574.009-.116.014-.232.001-.353-.044-.462-.057-.951-.036-1.455.033-.859-.375-1.562-1.149-1.979l-1.221-.66c.181-.564.415-1.154.711-1.789l1.358.328c.822.196 1.594-.059 2.13-.699.357-.425.668-.752.979-1.032.496-.446.748-1.017.723-1.719-.014-.137-.034-.274-.076-.42l-.422-1.428c.343-.183.66-.332.973-.458.253-.102.507-.196.763-.29.252.417.506.832.765 1.243.426.677 1.144 1.029 1.914.968.523-.042 1.061-.055 1.607-.04.784.015 1.489-.379 1.887-1.101l.685-1.257c.6.186 1.188.413 1.764.679-.122.493-.242.987-.356 1.484-.035.154-.052.313-.051.535.029.576.287 1.084.744 1.47.397.335.768.687 1.101 1.045.581.625 1.365.828 2.206.575.433-.13.865-.258 1.298-.385.299.562.562 1.149.785 1.756l-.305.185c-.309.187-.616.374-.924.564-.471.292-.791.717-.947 1.319l-.033.189c-.004.025-.01.084-.013.11-.01.112-.017.226-.007.351.044.529.057 1.025.037 1.525-.003.112.008.214.027.355.089.649.469 1.188 1.072 1.52l1.258.684c-.186.589-.411 1.172-.675 1.74m1.752-2.266h-.003l.014-.024-.011.024"></path>
<path d="m13.08 9c-1.09-.029-2.081.375-2.852 1.116-1.589 1.528-1.64 4.065-.111 5.655.74.77 1.736 1.206 2.805 1.227.027 0 .054.001.081.001 1.038 0 2.02-.395 2.771-1.117 1.589-1.528 1.64-4.065.111-5.656-.741-.769-1.737-1.205-2.805-1.226m1.306 5.441c-.794.764-2.062.741-2.828-.056-.764-.795-.738-2.063.057-2.828.794-.764 2.062-.74 2.828.056.764.795.738 2.064-.057 2.828"></path>
<path d="m21.669 22.666c.016-.013.094-.08.108-.094.31-.288.602-.597.936-.955.046-.045.091-.091.135-.14l.224-.251c.082-.085.163-.17.238-.263.286-.351.301-.85.035-1.217l-1.289-1.753c0 0-.013-.114-.014-.115.291-.567.503-1.054.721-1.613l2.192-.248c.298-.042.556-.216.709-.463.092-.129.17-.299.2-.519.1-.746.143-1.374.135-1.975-.005-.349-.021-.696-.037-1.044l-.023-.514c0-.001 0-.001 0-.002-.022-.559-.411-.987-1.014-1.074-.675-.097-1.348-.194-2.061-.333-.183-.554-.401-1.112-.622-1.734l1.294-1.622c.001-.001.065-.083.066-.085.281-.356.287-.856.015-1.219-.756-1.01-1.642-1.932-2.635-2.748-.301-.248-.758-.261-1.112-.092-.093.039-.182.086-.249.137-.558.419-1.116.838-1.71 1.229-.536-.272-1.052-.498-1.62-.705-.004-.008-.018-.042-.024-.107-.051-.488-.105-.977-.161-1.465l-.063-.57c0-.084-.005-.132-.041-.227-.082-.309-.325-.548-.624-.663-.005-.002-.011-.004-.016-.006-.071-.028-.147-.048-.226-.06-1.247-.176-2.526-.202-3.802-.076-.455.045-.821.393-.89.844l-.168 1.116c-.052.346-.103.692-.175 1.088l-.041.028c-.556.181-1.096.393-1.66.603l-1.717-1.374c-.293-.223-.696-.247-1.029-.102-.013.006-.024.011-.037.017-.09.042-.172.097-.244.163-.977.75-1.864 1.61-2.641 2.561-.288.352-.302.855-.032 1.223l1.27 1.744-.04.182c-.249.521-.474 1.042-.634 1.53-.029.013-.056.026-.074.038l-2.081.23c-.051.006-.112.016-.177.036-.422.077-.749.416-.81.844-.177 1.252-.201 2.534-.074 3.81.045.455.393.821.845.89l1.08.164 1.144.215c.169.529.375 1.06.631 1.622l-.024.101-1.311 1.638c-.271.34-.371.897.014 1.375l.15.188c.146.184.293.368.447.549.522.608 1.104 1.187 1.729 1.721.009.007.074.061.083.068.098.077.266.21.503.277.307.107.653.06.921-.139l1.761-1.301c.543.268 1.101.513 1.675.771.059.496.112.993.167 1.49l.064.596c.061.646.544.937.936.988.616.083 1.262.125 1.973.125.312 0 .637-.008.977-.024.056 0 .115 0 .178-.003l.295-.019c.096-.002.191-.005.269-.013.069-.006.164-.026.23-.046.075-.023.147-.054.214-.092.28-.146.479-.418.527-.737l.181-1.195c.048-.328.096-.655.182-1.017.523-.165 1.037-.366 1.625-.639.008.002.039.016.088.055l1.599 1.285c.197.162.435.246.676.249.23.02.469-.053.662-.2.362-.276.702-.581 1.098-.937m-1.4-1.434c-.115.104-.23.209-.348.312l-1.034-.831c-.678-.547-1.476-.65-2.243-.288-.454.212-.888.382-1.326.52-.145.045-.269.106-.421.188-.526.3-.874.803-.979 1.416-.06.342-.11.686-.16 1.03l-.06.398c-.657.033-1.262.03-1.828-.012-.051-.467-.103-.935-.157-1.403-.096-.786-.564-1.396-1.285-1.673-.5-.192-1-.412-1.49-.654-.51-.251-1.079-.277-1.619-.068-.173.071-.335.164-.482.273l-1.127.833c-.405-.372-.786-.765-1.135-1.17-.037-.044-.075-.088-.111-.133l.854-1.07c.515-.646.617-1.44.281-2.177-.223-.49-.401-.948-.548-1.407-.25-.77-.856-1.286-1.663-1.415l-1.374-.208c-.027-.605-.016-1.21.035-1.81l1.394-.154c.179-.02.354-.06.548-.131.119-.047.232-.104.338-.17.036-.021.072-.043.102-.064.307-.222.544-.532.685-.897.193-.5.418-1.015.667-1.528.034-.072.059-.147.077-.225l.126-.578c.024-.113.029-.231.014-.346-.047-.345-.178-.669-.391-.963l-.824-1.121c.403-.441.836-.857 1.293-1.244l1.077.863c.516.408 1.135.553 1.787.396.12-.031.237-.065.359-.123.435-.202.898-.384 1.384-.542.102-.034.192-.077.304-.135.031-.016.062-.034.093-.053l.19-.122c.031-.02.062-.042.091-.066.395-.321.647-.767.73-1.29.057-.353.108-.705.161-1.058l.047-.319c.615-.027 1.229-.014 1.833.039.049.434.098.868.144 1.302.09.865.576 1.501 1.369 1.792.45.164.894.358 1.356.593.529.27 1.09.31 1.68.094.155-.066.293-.143.424-.236.396-.285.789-.576 1.181-.869.447.409.865.845 1.251 1.303l-.864 1.084c-.506.638-.608 1.418-.281 2.141.219.483.411.975.572 1.463.246.744.834 1.245 1.615 1.374.458.075.917.145 1.392.214.013.259.023.518.026.777.004.324-.01.661-.043 1.033l-1.424.16c-.15.017-.289.053-.474.113-.592.224-1.02.673-1.236 1.3-.135.387-.312.792-.559 1.273-.378.734-.313 1.539.177 2.208l.802 1.089-.046.046c-.253.274-.508.547-.796.812l-.131.114"></path>
</svg>