<svg xmlns="http://www.w3.org/2000/svg" viewBox="0 0 42 46" enable-background="new 0 0 42 46">
<path d="m39 6h-5.08c-.488-3.386-3.401-6-6.92-6-3.859 0-7 3.141-7 7s3.141 7 7 7c3.519 0 6.432-2.614 6.92-6h5.08c.552 0 1 .404 1 .9v34.2c0 .496-.448.9-1 .9h-36c-.552 0-1-.404-1-.9v-34.2c0-.496.448-.9 1-.9h9.185c.553 0 1-.447 1-1s-.447-1-1-1h-9.185c-1.654 0-3 1.301-3 2.9v34.2c0 1.6 1.346 2.9 3 2.9h36c1.654 0 3-1.301 3-2.9v-34.2c0-1.599-1.346-2.9-3-2.9m-12 6c-2.757 0-5-2.243-5-5s2.243-5 5-5 5 2.243 5 5-2.243 5-5 5"></path>
<path d="m11.519 35.35c.195.195.451.293.707.293s.512-.098.707-.293l8.165-8.165c.391-.391.391-1.023 0-1.414l-8.165-8.166c-.391-.391-1.023-.391-1.414 0s-.391 1.023 0 1.414l7.458 7.459-7.458 7.458c-.391.39-.391 1.023 0 1.414"></path>
<path d="m29.774 36c.553 0 1-.447 1-1s-.447-1-1-1h-6c-.553 0-1 .447-1 1s.447 1 1 1h6"></path>
</svg>