<svg xmlns="http://www.w3.org/2000/svg" viewBox="0 0 28 46" enable-background="new 0 0 28 46"><path d="m27 34h-2.105l-2.102-18.913 3.083-5.605c.01-.019.014-.04.023-.06.013-.027.022-.053.032-.081.038-.104.062-.211.064-.32.001-.008.005-.014.005-.021v-8c0-.552-.447-1-1-1h-4.4c-.553 0-1 .448-1 1v2h-2.4v-2c0-.552-.447-1-1-1h-4.4c-.553 0-1 .448-1 1v2h-2.4v-2c0-.552-.447-1-1-1h-4.4c-.553 0-1 .448-1 1v8c0 .007.004.013.004.02.002.109.026.216.065.32.01.029.019.055.031.082.009.02.013.041.024.06l3.083 5.605-2.102 18.913h-2.105c-.553 0-1 .448-1 1v7c0 .553.447 1 1 1h9c.047 0 .088-.021.134-.027.437 1.735 1.997 3.03 3.866 3.03 2.206 0 4-1.794 4-4s-1.794-4-4-4c-1.869 0-3.429 1.292-3.866 3.03-.046-.006-.087-.027-.134-.027h-8v-5h2 20 2v5h-4.05c-.553 0-1 .447-1 1s.447 1 1 1h5.05c.553 0 1-.447 1-1v-7c0-.552-.447-1-1-1m-13 6c1.103 0 2 .897 2 2s-.897 2-2 2-2-.897-2-2 .897-2 2-2m-10-38h2.4v2c0 .552.447 1 1 1h4.4c.553 0 1-.448 1-1v-2h2.4v2c0 .552.447 1 1 1h4.4c.553 0 1-.448 1-1v-2h2.4v6h-20v-6m19.309 8l-2.199 4h-14.219l-2.199-4h18.617m-18.19 24l2-18h13.764l2 18h-17.766"></path></svg>