<svg xmlns="http://www.w3.org/2000/svg" viewBox="0 0 46 46" enable-background="new 0 0 46 46">
<path d="m6.946 40.12c0 .553.447 1 1 1h32.16c.553 0 1-.447 1-1s-.447-1-1-1h-31.16v-1.244c0-.013-.007-.023-.007-.035.877-.282 1.575-.949 1.894-1.81l7.128-.75c.344-.036.644-.247.795-.557l8.414-17.288c.241-.497.035-1.095-.462-1.336-.497-.244-1.095-.035-1.337.461l-8.171 16.789-6.351.669c-.299-.857-.968-1.531-1.822-1.836v-15.185c0-.552-.447-1-1-1s-1 .448-1 1v15.184c-1.161.414-2 1.514-2 2.816 0 1.278.807 2.364 1.936 2.796-.002.029-.017.053-.017.083v2.243m1.081-6.122c.552 0 1 .449 1 1s-.448 1-1 1-1-.449-1-1 .449-1 1-1"></path>
<path d="m42.762 2.973l-4.882.011c-.452-1.712-2-2.984-3.853-2.984-2.206 0-4 1.794-4 4s1.794 4 4 4c1.865 0 3.421-1.287 3.863-3.02l4.874-.011c.712 0 1.291.579 1.291 1.291v36.445c0 .712-.579 1.291-1.291 1.291h-39.473c-.712 0-1.291-.579-1.291-1.291v-29.709h37.03c.553 0 1-.448 1-1s-.447-1-1-1h-37.03v-4.736c0-.711.579-1.291 1.291-1.291h22.486c.553 0 1-.448 1-1s-.447-1-1-1h-22.486c-1.814 0-3.291 1.476-3.291 3.291v36.445c0 1.814 1.477 3.291 3.291 3.291h39.473c1.814 0 3.291-1.477 3.291-3.291v-36.445c0-1.815-1.477-3.291-3.293-3.291m-8.735 3.03c-1.103 0-2-.897-2-2s.897-2 2-2 2 .897 2 2-.897 2-2 2"></path>
</svg>