<svg xmlns="http://www.w3.org/2000/svg" viewBox="0 0 42 46" enable-background="new 0 0 42 46">
<path d="m18.997 38c-1.843 0-3.383 1.259-3.845 2.958-.052-.007-.098-.03-.152-.03h-9.52c-1.919 0-3.48-1.669-3.48-3.72v-28.56c0-2.051 1.562-3.72 3.48-3.72h5.779l-1.311 1.311c-.391.39-.391 1.023 0 1.414.195.195.451.293.707.293s.512-.098.707-.293l2.974-2.973c.188-.188.293-.442.293-.707s-.105-.52-.293-.707l-2.974-2.973c-.391-.391-1.023-.391-1.414 0s-.391 1.024 0 1.414l1.221 1.221h-5.689c-3.02 0-5.48 2.566-5.48 5.72v28.561c0 3.154 2.459 5.72 5.48 5.72h9.52c.039 0 .072-.018.11-.022.412 1.768 1.994 3.093 3.887 3.093 2.206 0 4-1.794 4-4s-1.794-4-4-4m0 6c-1.103 0-2-.897-2-2s.897-2 2-2 2 .897 2 2-.897 2-2 2"></path>
<path d="m36.2 2.928h-9.367c-.472-1.683-2-2.928-3.836-2.928-2.206 0-4 1.794-4 4s1.794 4 4 4c1.885 0 3.459-1.314 3.88-3.072h9.323c2.095 0 3.8 1.686 3.8 3.757v28.19c0 2.234-1.603 4.053-3.571 4.053h-5.801l1.167-1.167c.391-.391.391-1.023 0-1.414s-1.023-.391-1.414 0l-2.973 2.973c-.391.391-.391 1.023 0 1.414l2.973 2.974c.195.195.451.292.707.292s.512-.098.707-.293c.391-.391.391-1.023 0-1.414l-1.365-1.365h5.998c3.072 0 5.571-2.715 5.571-6.05v-28.19c.001-3.174-2.601-5.757-5.799-5.757m-13.203 3.072c-1.103 0-2-.897-2-2s.897-2 2-2 2 .897 2 2-.897 2-2 2"></path>
<path d="m34 24.488c0-.552-.447-1-1-1h-5.914l-2.928-8.68c-.134-.396-.5-.667-.918-.68-.429-.025-.799.236-.956.624l-5.569 13.753-2.755-4.537c-.181-.299-.505-.481-.854-.481h-4.106c-.553 0-1 .448-1 1s.447 1 1 1h3.543l3.497 5.759c.182.3.507.481.854.481.026 0 .054-.001.08-.003.377-.03.705-.271.847-.621l5.305-13.1 2.295 6.804c.137.406.519.68.947.68h6.632c.553.001 1-.446 1-.999"></path>
</svg>