<svg xmlns="http://www.w3.org/2000/svg" viewBox="0 0 46 46" enable-background="new 0 0 46 46">
<path d="m17.16 19.687c-.276-.479-.89-.645-1.366-.364l-6.586 3.812c-.309.178-.499.509-.499.865s.19.687.499.865l6.586 3.812c.158.092.33.135.5.135.346 0 .681-.179.866-.499.277-.478.113-1.09-.364-1.366l-5.091-2.947 5.091-2.947c.477-.277.642-.889.364-1.366"></path>
<path d="m28.842 28.313c.186.32.521.499.866.499.17 0 .343-.043.5-.135l6.586-3.812c.309-.179.499-.509.499-.865s-.19-.687-.499-.865l-6.586-3.812c-.481-.28-1.09-.114-1.366.364-.277.478-.113 1.09.364 1.366l5.091 2.947-5.091 2.947c-.477.277-.642.889-.364 1.366"></path>
<path d="m24.997 15.03l-5.887 17.293c-.179.522.102 1.091.624 1.269.106.037.216.054.322.054.416 0 .805-.262.946-.678l5.887-17.293c.179-.522-.102-1.091-.624-1.269-.522-.182-1.089.102-1.268.624"></path>
<path d="m44.33 14.374c-.207-.513-.789-.76-1.302-.552-.512.207-.759.79-.552 1.302 1.013 2.503 1.527 5.152 1.527 7.876 0 11.579-9.421 21-21 21s-21-9.421-21-21 9.421-21 21-21c4.253 0 8.303 1.265 11.788 3.639-.504.682-.788 1.497-.788 2.361 0 1.068.416 2.073 1.172 2.828.755.756 1.76 1.172 2.828 1.172s2.073-.416 2.828-1.172c.756-.755 1.172-1.76 1.172-2.828s-.416-2.073-1.172-2.828c-1.145-1.146-2.936-1.419-4.394-.827-3.931-2.836-8.562-4.345-13.434-4.345-12.683 0-23 10.317-23 23s10.317 23 23 23 23-10.317 23-23c0-2.981-.562-5.884-1.673-8.626m-4.913-7.788c.378.378.586.88.586 1.414s-.208 1.036-.586 1.414c-.756.756-2.072.756-2.828 0-.378-.378-.586-.88-.586-1.414s.208-1.036.586-1.414.88-.586 1.414-.586 1.036.208 1.414.586"></path>
</svg>