<svg xmlns="http://www.w3.org/2000/svg" viewBox="0 0 46 46" enable-background="new 0 0 46 46">
<path d="m38 13h-32c-.553 0-1 .448-1 1s.447 1 1 1h32c.553 0 1-.448 1-1s-.447-1-1-1"></path>
<path d="m36 20c-1.806 0-3.317 1.21-3.813 2.855h-5.374c-.496-1.645-2.01-2.855-3.813-2.855s-3.317 1.21-3.813 2.855h-5.374c-.496-1.645-2.01-2.855-3.813-2.855-2.206 0-4 1.794-4 4s1.794 4 4 4c1.912 0 3.509-1.35 3.903-3.145h5.194c.394 1.795 1.991 3.145 3.903 3.145s3.509-1.35 3.903-3.145h5.194c.394 1.795 1.991 3.145 3.903 3.145 2.206 0 4-1.794 4-4s-1.794-4-4-4m-26 6c-1.103 0-2-.897-2-2s.897-2 2-2 2 .897 2 2-.897 2-2 2m13 0c-1.103 0-2-.897-2-2 0-.029.007-.057.009-.086.001-.021.012-.038.012-.059 0-.007-.004-.013-.004-.019.085-1.025.937-1.836 1.983-1.836 1.103 0 2 .897 2 2s-.897 2-2 2m13 0c-1.103 0-2-.897-2-2s.897-2 2-2 2 .897 2 2-.897 2-2 2"></path>
<path d="m36 32c-1.809 0-3.323 1.214-3.816 2.865h-5.368c-.493-1.651-2.01-2.865-3.816-2.865-1.859 0-3.411 1.28-3.858 3h-5.284c-.447-1.72-1.999-3-3.858-3-2.206 0-4 1.794-4 4s1.794 4 4 4c1.859 0 3.411-1.28 3.858-3h5.284c.447 1.72 1.999 3 3.858 3 1.908 0 3.503-1.345 3.9-3.135h5.2c.397 1.79 1.992 3.135 3.9 3.135 2.206 0 4-1.794 4-4s-1.794-4-4-4m-26 6c-1.103 0-2-.897-2-2s.897-2 2-2 2 .897 2 2-.897 2-2 2m13 0c-1.103 0-2-.897-2-2s.897-2 2-2 2 .897 2 2-.897 2-2 2m13 0c-1.103 0-2-.897-2-2s.897-2 2-2 2 .897 2 2-.897 2-2 2"></path>
<path d="m42.639 2.999h-8.639c-.553 0-1 .448-1 1s.447 1 1 1h8.639c.751 0 1.361.6 1.361 1.336v36.33c0 .736-.61 1.336-1.361 1.336h-39.28c-.751 0-1.361-.6-1.361-1.336v-36.33c0-.737.61-1.336 1.361-1.336h15.78c.448 1.721 2 3 3.859 3 2.206 0 4-1.794 4-4s-1.794-4-4-4c-1.858 0-3.41 1.279-3.858 2.999h-15.781c-1.853 0-3.361 1.497-3.361 3.336v36.33c0 1.84 1.508 3.336 3.361 3.336h39.28c1.854 0 3.362-1.496 3.362-3.336v-36.33c0-1.839-1.508-3.336-3.361-3.336m-19.639-.999c1.103 0 2 .897 2 2s-.897 2-2 2c-1.072 0-1.943-.85-1.991-1.91.003-.031.018-.058.018-.091 0-.032-.015-.059-.018-.09.049-1.06.92-1.909 1.991-1.909"></path>
</svg>