<svg xmlns="http://www.w3.org/2000/svg" viewBox="0 0 46 46" enable-background="new 0 0 46 46">
<path d="m40.838 39.819c-.963 0-1.883.262-2.683.751-1.483-2.296-4.047-3.724-6.831-3.724-1.491 0-2.93.404-4.185 1.161l-1.197-8.08h.01l2.174 4.34c.27.475.763.778 1.378.812l1.703-.003c.399-.03.769-.198 1.041-.474.21-.212.344-.447.408-.705l2.047-7.839c.095-.479-.029-.987-.362-1.398l-4.276-4.786c.13-1.648.198-3.09.21-4.402-.014-6.368-1.74-10.584-6.159-15.04-.59-.596-1.659-.577-2.258.025-3.3 3.325-4.913 6.078-5.645 9.631-.759.143-1.479.496-2.042 1.059-.755.755-1.171 1.76-1.171 2.829s.416 2.073 1.172 2.828c.755.756 1.76 1.172 2.828 1.172s2.073-.416 2.828-1.172c.756-.755 1.172-1.76 1.172-2.828s-.416-2.073-1.172-2.828c-.451-.451-1.01-.751-1.599-.933.658-2.913 2.046-5.263 4.771-8.07 3.827 3.964 5.264 7.618 5.275 13.311-.012 1.364-.09 2.893-.237 4.673-.023.273.067.545.25.749l4.412 4.936-1.896 7.257-1.036.002-2.303-4.602c-.17-.339-.516-.553-.895-.553h-7.14c-.379 0-.725.214-.895.553l-2.303 4.6h-1.036l-1.897-7.255 4.413-4.938c.367-.411.332-1.044-.08-1.412-.411-.366-1.042-.333-1.412.08l-4.594 5.144c-.301.373-.425.882-.316 1.419l2.033 7.78c.173.662.781 1.147 1.526 1.182h1.626c.411 0 .818-.173 1.114-.472.062-.062.19-.189.289-.388l2.149-4.293h.009l-1.197 8.08c-1.255-.757-2.693-1.161-4.185-1.161-2.784 0-5.348 1.428-6.831 3.724-.799-.489-1.72-.751-2.683-.751-2.845-.002-5.16 2.313-5.16 5.16 0 .553.447 1 1 1h44c.553 0 1-.447 1-1 0-2.847-2.315-5.162-5.162-5.162m-21.838-25.838c0 .534-.208 1.036-.586 1.414-.756.756-2.072.756-2.828 0-.378-.378-.586-.88-.586-1.414s.208-1.036.586-1.414.88-.586 1.414-.586 1.036.208 1.414.586.586.88.586 1.414m-16.838 30c.419-1.255 1.605-2.162 3-2.162.864 0 1.671.344 2.273.968.23.239.566.352.894.29.328-.058.605-.274.74-.579.984-2.218 3.185-3.651 5.606-3.651 1.582 0 3.086.604 4.234 1.703.271.258.663.345 1.016.224.354-.122.61-.43.665-.8l1.488-10.05h1.842l1.488 10.05c.055.37.312.678.665.8.353.122.746.034 1.016-.224 1.148-1.099 2.652-1.703 4.234-1.703 2.422 0 4.622 1.434 5.606 3.651.135.305.412.521.739.579.328.061.664-.051.894-.289.604-.625 1.411-.969 2.274-.969 1.395 0 2.581.907 3 2.162h-41.674"></path>
</svg>