<svg xmlns="http://www.w3.org/2000/svg" xmlns:xlink="http://www.w3.org/1999/xlink" viewBox="0 0 34 46" enable-background="new 0 0 34 46">
<path d="m11 13.598v2.402h-1.362c-.904 0-1.638.778-1.638 1.734v12.532c0 .956.734 1.734 1.638 1.734h2.294c.084 0 .159-.028.238-.048.4 1.186 1.51 2.048 2.83 2.048 1.654 0 3-1.346 3-3s-1.346-3-3-3c-1.32 0-2.43.862-2.831 2.048-.078-.02-.153-.048-.237-.048h-1.932v-12h14v12h-1.929c-.553 0-1 .448-1 1s.447 1 1 1h2.291c.904 0 1.638-.778 1.638-1.734v-12.532c0-.956-.734-1.734-1.638-1.734h-1.362v-2.402c0-2.073-1.688-3.76-3.761-3.76h-4.479c-2.072 0-3.76 1.687-3.76 3.76m4 16.402c.552 0 1 .449 1 1s-.448 1-1 1-1-.449-1-1 .448-1 1-1m6-16.402v2.24h-8v-2.24c0-.971.79-1.76 1.761-1.76h4.479c.97 0 1.76.789 1.76 1.76" id="0"></path>
<path d="m18.206 21.789l-2.029 2.186-.448-.403c-.408-.37-1.043-.338-1.412.073-.369.41-.337 1.042.074 1.412l1.166 1.051c.001.001.001.002.002.002.001.001.002.001.003.002l.009.008c.057.052.126.08.191.117.042.023.079.058.123.075.115.044.235.066.356.066.135 0 .27-.028.396-.082.044-.019.077-.058.118-.083.076-.047.156-.086.219-.154l2.699-2.909c.375-.405.352-1.038-.053-1.413-.407-.376-1.038-.353-1.414.052" id="1"></path>
<path d="m33.34 5.927l-16-5.867c-.223-.081-.467-.081-.689 0l-16 5.867c-.394.145-.656.52-.656.939v20.534c0 3.184.798 6.02 4.693 9.542 2.731 2.465 6.961 5.71 10.523 8.07l1.23.816c.168.112.362.168.554.168.193 0 .387-.056.555-.168l1.218-.81c3.565-2.365 7.799-5.612 10.534-8.08 3.895-3.517 4.693-6.359 4.693-9.542v-20.534c0-.419-.262-.794-.655-.939m-1.345 21.473c0 2.796-.66 5.01-4.03 8.06-2.669 2.408-6.809 5.583-10.299 7.898l-.668.444-.677-.449c-3.489-2.315-7.625-5.488-10.29-7.893-3.373-3.047-4.03-5.262-4.03-8.06v-19.835l15-5.5 15 5.5v19.835" id="2"></path>
<use xlink:href="#0"></use>
<use xlink:href="#1"></use>
<use xlink:href="#2"></use>
</svg>