<svg xmlns="http://www.w3.org/2000/svg" viewBox="0 0 46 46" enable-background="new 0 0 46 46">
<path d="m19 5h26c.553 0 1-.447 1-1s-.447-1-1-1h-26c-.553 0-1 .447-1 1s.447 1 1 1"></path>
<path d="m19 9h14c.553 0 1-.447 1-1s-.447-1-1-1h-14c-.553 0-1 .447-1 1s.447 1 1 1"></path>
<path d="m5.57 9.196l.01.009c.061.055.133.086.202.123.038.021.072.054.113.069.114.044.234.066.355.066.135 0 .27-.028.396-.082.038-.016.066-.051.102-.072.083-.049.167-.093.235-.166l2.714-2.926c.375-.404.352-1.037-.054-1.413-.406-.377-1.038-.353-1.413.053l-2.043 2.203-.453-.409c-.409-.37-1.041-.338-1.412.072-.37.41-.338 1.043.072 1.412l1.176 1.061"></path>
<path d="m7 14c3.859 0 7-3.141 7-7s-3.141-7-7-7-7 3.141-7 7 3.141 7 7 7m0-12c2.757 0 5 2.243 5 5s-2.243 5-5 5-5-2.243-5-5 2.243-5 5-5"></path>
<path d="m45 20h-26c-.553 0-1 .447-1 1s.447 1 1 1h26c.553 0 1-.447 1-1s-.447-1-1-1"></path>
<path d="m19 26h14c.553 0 1-.447 1-1s-.447-1-1-1h-14c-.553 0-1 .447-1 1s.447 1 1 1"></path>
<path d="m8.23 20.857l-2.043 2.203-.453-.409c-.409-.37-1.041-.339-1.412.072-.37.41-.338 1.043.072 1.412l1.176 1.06.01.009c.061.055.133.086.202.123.039.021.072.053.113.069.115.044.235.066.355.066.135 0 .27-.028.396-.082.038-.016.066-.051.102-.072.082-.048.167-.092.235-.166l2.714-2.926c.375-.404.352-1.037-.054-1.413-.406-.376-1.038-.352-1.413.054"></path>
<path d="m7.01 16c-3.859 0-7 3.141-7 7s3.141 7 7 7 7-3.141 7-7-3.141-7-7-7m0 12c-2.757 0-5-2.243-5-5s2.243-5 5-5 5 2.243 5 5-2.243 5-5 5"></path>
<path d="m8.23 36.857l-2.043 2.203-.453-.409c-.409-.369-1.041-.339-1.412.072-.37.41-.338 1.043.072 1.412l1.176 1.06.01.009c.061.055.133.086.202.123.039.021.072.053.113.069.115.044.235.066.355.066.135 0 .27-.028.396-.082.038-.016.066-.051.102-.072.082-.048.167-.092.235-.166l2.714-2.926c.375-.404.352-1.037-.054-1.413-.406-.376-1.038-.352-1.413.054"></path>
<path d="m7.01 32c-3.859 0-7 3.141-7 7s3.141 7 7 7 7-3.141 7-7-3.141-7-7-7m0 12c-2.757 0-5-2.243-5-5s2.243-5 5-5 5 2.243 5 5-2.243 5-5 5"></path>
<path d="m45 37h-26c-.553 0-1 .447-1 1s.447 1 1 1h26c.553 0 1-.447 1-1s-.447-1-1-1"></path>
<path d="m33 41h-14c-.553 0-1 .447-1 1s.447 1 1 1h14c.553 0 1-.447 1-1s-.447-1-1-1"></path>
</svg>