<svg viewBox="0 0 532 380" xmlns="http://www.w3.org/2000/svg"><path d="M530.564 118.305c.845.73.673 2.097-.47 3.446-2.305 2.722-60.41 70.879-60.41 70.879s13.585 75.616 14.136 78.809c.543 3.13-.214 3.986-3.768 4.037-1.917.031-22.724.06-31.723.067-3.62.003-4.251-.98-4.845-3.956-.645-3.243-14.117-76.212-14.117-76.212s-26.472 73.28-27.765 76.872c-1.296 3.594-2.703 3.382-5.066 3.387-8.305.02-27.48.064-31.52.055-6.872-.017-6.967-.272-4.503-7.358 1.548-4.445 89.95-254.672 91.287-258.59 1.831-5.363 3.665-6.346 8.005-6.344 3.38 0 25.785 1.132 30.753 1.845 4.684.673 5.627 2.197 3.582 8.146-1.573 4.57-61.751 173.61-61.751 173.61s54.104-65.413 56.078-67.777c2.002-2.398 3.741-3.55 7.282-3.328 8.705.49 28.254 1.557 31.504 1.746 1.74.1 2.733.165 3.311.666zm-153.192-3.323c3.1 1.752 3.53 4.115 1.97 7.086-.992 1.884-13.663 25.46-13.663 25.46s-10.82-11.172-17.582-12.621c-6.762-1.454-11.26-.134-15.202 3.313-4.419 3.855-8.806 11.493-6.057 19.11 1.512 4.232 3.117 7.588 19.752 28.367 20.58 25.69 11.408 53.574 1.341 67.062-9.74 13.039-27.237 24.155-44.921 24.816-25.833.962-40.7-5.062-48.198-9.687-5.676-3.493-6.012-5.552-3.173-11.747 2.136-4.656 13.156-28.314 13.156-28.314s2.98 10.204 16.836 15.593c13.85 5.38 25.303.985 30.064-5.934 4.01-5.847 6.902-20.094-11.196-42.178-8.122-9.903-13.486-20.801-14.827-29.678-1.336-8.926.149-26.157 10.512-40.057 10.237-13.746 26.996-21.065 49.257-20.07 14.667.65 26.32 6.303 31.93 9.48zM160.805 192.59l42.693.039 13.97-90.877-56.663 90.838zM246.638 4.27c3.652-5.224 10.07-5.808 9.476 2.169-1.407 18.805-21.38 259.05-21.687 262.866-.421 5.242-1.178 6.606-6.968 6.637-3.298.024-26.035.068-31.544.07-4.782-.004-4.752-1.846-4.354-4.561.944-6.466 6.258-43.247 6.258-43.247l-58.071-.089S51.992 356.742 51.372 357.758c-1.252 2.058-2.403 2.407-5.31 2.414-8.62.023-37.889.07-41.183.039-4.695-.047-6.336-1.287-3.34-5.616 2.127-3.069 232.537-332.359 245.1-350.326zm-127.21 292.768l13.631 34.646 13.542-34.646h7.382v62.932h-5.57v-40.15l.044-10.331c0-1.294-.015-3.218-.045-5.775-1.087 4.12-2.536 8.542-4.348 13.263l-11.005 28.557-9.33-24c-1.81-4.632-3.97-10.391-6.476-17.278.393 13.564.59 21.097.59 22.601v33.113H112v-62.932h7.427zm73.505 58.42c-4.59 3.67-9.073 5.504-13.451 5.504-5.133 0-9.284-2.052-12.455-6.157-3.17-4.106-4.755-9.452-4.755-16.038 0-6.797 1.638-12.293 4.914-16.489 3.276-4.195 7.42-6.293 12.432-6.293 4.438 0 8 1.692 10.688 5.075 2.687 3.384 4.03 7.662 4.03 12.835v2.797h-26.222v2.21c0 5.594 1.17 9.82 3.51 12.677 2.34 2.857 5.08 4.286 8.22 4.286 4.348 0 8.71-2.391 13.089-7.173v6.767zm-4.665-23.593c-.12-3.58-1.042-6.263-2.763-8.053-1.72-1.79-3.728-2.684-6.023-2.684-2.325 0-4.491.895-6.5 2.684-2.007 1.79-3.433 4.474-4.279 8.053h19.565zm37.048-34.827h5.751v62.932h-5.751v-6.045c-1.42 2.346-3.027 4.105-4.824 5.278a10.591 10.591 0 01-5.91 1.76c-4.529 0-8.197-2.219-11.005-6.655-2.808-4.436-4.212-9.601-4.212-15.496 0-6.316 1.548-11.7 4.642-16.15 3.095-4.451 7.028-6.677 11.798-6.677 1.54 0 3.102.346 4.687 1.038 1.586.691 3.193 1.744 4.824 3.157v-23.142zm0 28.601c-1.178-1.444-2.46-2.519-3.85-3.225-1.389-.707-2.898-1.06-4.529-1.06-3.351 0-6.144 1.593-8.378 4.781-2.234 3.188-3.351 7.399-3.351 12.632 0 4.902.98 8.962 2.943 12.18s4.469 4.827 7.518 4.827c2.687 0 4.967-1.188 6.839-3.563 1.872-2.376 2.808-5.384 2.808-9.023v-17.549zm18.026-27.7c2.235 0 3.352 1.7 3.352 5.099 0 3.579-1.148 5.368-3.442 5.368-2.204 0-3.306-1.73-3.306-5.188 0-3.519 1.132-5.278 3.396-5.278zm-2.898 19.038h5.66v42.993h-5.66v-42.993zm16.124 2.843c4.62-2.557 8.5-3.835 11.64-3.835 4.528 0 7.955 1.308 10.28 3.925 2.325 2.646 3.487 6.195 3.487 10.646v22.692c0 1.654.785 2.481 2.355 2.481.815 0 1.63-.225 2.446-.676v4.917c-1.45.662-2.929.992-4.438.992-3.925 0-5.948-2.3-6.07-6.902-1.479 2.286-3.124 4.008-4.936 5.166-1.811 1.157-3.774 1.736-5.887 1.736-3.442 0-6.325-1.248-8.65-3.744-2.325-2.496-3.488-5.549-3.488-9.158 0-3.82 1.442-6.992 4.326-9.519 2.883-2.526 9.095-4.24 18.636-5.143V329.7c0-2.436-.793-4.443-2.378-6.022-1.585-1.58-3.555-2.369-5.91-2.369-3.351 0-7.156 1.654-11.413 4.963v-6.451zm19.7 18c-7.457.902-12.174 2.172-14.152 3.812-1.977 1.639-2.966 3.721-2.966 6.248 0 2.285.724 4.173 2.174 5.661 1.449 1.49 3.275 2.233 5.48 2.233 2.747 0 5.011-1.142 6.793-3.428 1.781-2.286 2.672-5.218 2.672-8.797v-5.73zm63.861 15.97c-1.419 2.375-3.026 4.165-4.823 5.368-1.796 1.203-3.782 1.804-5.955 1.804-3.442 0-6.688-1.428-9.738-4.285-3.049-2.857-5.283-6.812-6.702-11.865-1.42-5.053-2.129-10.286-2.129-15.7 0-10.014 2.083-18.037 6.25-24.067 4.167-6.03 9.601-9.045 16.304-9.045 3.774 0 7.654 1.293 11.64 3.88v7.579c-4.137-3.88-8.062-5.82-11.776-5.82-4.891 0-8.809 2.511-11.752 7.534-2.944 5.023-4.416 11.834-4.416 20.436 0 7.068 1.23 13.113 3.691 18.135 2.46 5.023 5.608 7.534 9.443 7.534 2.717 0 5.057-1.346 7.02-4.037 1.962-2.692 2.943-5.993 2.943-9.903v-7.488H328.49v-5.369h17.753v31.489h-3.895l-2.219-6.18zm19.748-30.452c1.359-2.466 2.876-4.308 4.551-5.526 1.676-1.218 3.51-1.827 5.503-1.827 1.48 0 2.974.33 4.484.992v5.324c-1.752-.662-3.231-.993-4.439-.993-2.868 0-5.268 1.339-7.2 4.015-1.933 2.677-2.9 5.745-2.9 9.203v25.444h-5.57v-42.993h5.073l.498 6.361zm35.553-7.353c4.74 0 8.696 2.053 11.866 6.158s4.755 9.541 4.755 16.308c0 3.91-.626 7.602-1.88 11.075-1.252 3.474-3.192 6.248-5.819 8.324-2.627 2.075-5.676 3.112-9.148 3.112-5.163 0-9.232-2.12-12.206-6.36-2.974-4.241-4.46-9.55-4.46-15.925 0-5.083.935-9.474 2.807-13.173 1.872-3.7 4.16-6.21 6.862-7.534 2.702-1.323 5.11-1.985 7.223-1.985zm.362 5.323c-3.774 0-6.612 1.594-8.514 4.782-1.902 3.188-2.853 7.534-2.853 13.038 0 4.722.936 8.676 2.808 11.864 1.872 3.188 4.499 4.782 7.88 4.782 3.2 0 5.835-1.48 7.903-4.443 2.068-2.963 3.102-7.286 3.102-12.97 0-5.414-1.011-9.61-3.034-12.587-2.023-2.977-4.453-4.466-7.292-4.466zm46.514-4.33h5.66v42.992h-5.66v-5.91c-1.6 2.286-3.352 4.008-5.254 5.166-1.902 1.157-3.955 1.736-6.16 1.736-3.683 0-6.558-1.248-8.627-3.744-2.068-2.496-3.102-5.835-3.102-10.015v-30.226h5.616v30.226c0 2.857.604 5 1.811 6.429 1.208 1.428 3.02 2.142 5.435 2.142 3.02 0 5.488-1.27 7.405-3.812 1.917-2.541 2.876-5.812 2.876-9.812v-25.173zM463.05 380h-5.616v-63.023h5.072l.544 6.226c1.54-2.406 3.223-4.21 5.05-5.414 1.826-1.203 3.78-1.804 5.864-1.804 4.62 0 8.28 2.128 10.983 6.383 2.702 4.256 4.053 9.482 4.053 15.677 0 7.519-1.744 13.218-5.23 17.098-3.488 3.88-7.315 5.82-11.482 5.82a11.49 11.49 0 01-4.755-1.038c-1.54-.692-3.034-1.73-4.483-3.113V380zm0-28.511c1.237 1.413 2.558 2.48 3.962 3.203a9.623 9.623 0 004.461 1.082c3.412 0 6.212-1.609 8.401-4.827 2.19-3.218 3.284-7.413 3.284-12.586 0-4.752-.959-8.79-2.876-12.113-1.917-3.323-4.461-4.985-7.631-4.985-2.778 0-5.073 1.316-6.884 3.948-1.812 2.631-2.717 5.661-2.717 9.09v17.188z" fill="#444"/></svg>