<svg xmlns="http://www.w3.org/2000/svg" viewBox="0 0 340 160"><g fill-rule="evenodd" clip-rule="evenodd" fill="#444"><path d="M170 12.3c-37.2 0-67.7 30.5-67.7 67.7 0 37.1 30.5 67.7 67.7 67.7 37.1 0 67.7-30.5 67.7-67.7S207.1 12.3 170 12.3zm47 110c-11.9 13.2-29.2 20.9-47 20.9-15.5 0-30.8-5.9-42.3-16.3-13.3-11.9-20.9-29.2-20.9-47 0-15.5 5.8-30.8 16.2-42.4 11.9-13.2 29.3-20.9 47.1-20.9 15.5 0 30.8 5.9 42.3 16.3 13.3 11.9 20.9 29.2 20.9 47.1 0 15.5-5.9 30.8-16.3 42.3z"/><path d="M169.5 77.5l6.2-8.3h6.4l-10 12.9v8.1h-5.2v-8.1l-10-12.9h6.5l6.1 8.3zm34 8.9v3.8h-20.3v-21h19.7V73h-14.4v4.6h13.9v3.7h-13.9v5.1h15zm-22 23.2v3.7h-21.8V92.4H181v3.8h-16v4.5h15.5v3.8H165v5.1h16.5zm-30.4-40.4h-5.6l-10.3 20.9h5.9L143 86h10.6l1.9 4.1h5.9l-10.3-20.9zm-6.3 13l3.5-7.6 3.5 7.6h-7zm-14.5-3.6c2-.8 3.3-2 3.3-4.3 0-4.5-4.2-5.1-7.9-5.1h-12.9v20.9h14.6c4 0 7.3-1.6 7.3-6.1 0-2.8-1.7-4.8-4.4-5.4zM118 73h7.7c1.5 0 2.9.4 2.8 2.2-.1 1.6-1.3 2.1-2.8 2.1H118V73zm7.7 13.4H118v-5.5h7.7c2 0 3.6.2 3.6 2.7 0 2.2-1.6 2.8-3.6 2.8zm97.7-4.6c3.3-.7 5.4-2.7 5.4-6.3 0-4.8-4.1-6.2-8.2-6.2h-14.1v20.9h5.2v-8.3h6.1l5.5 8.3h6.2l-6.1-8.4zm-3.3-3.8h-8.2v-5h8.2c1.7 0 3.4.5 3.4 2.5 0 2.1-1.7 2.5-3.4 2.5zm-43.9-46.1c2-.9 3.3-2 3.3-4.3 0-4.5-4.2-5.1-7.9-5.1h-12.9v21h14.6c4 0 7.3-1.6 7.3-6.1.1-2.8-1.6-4.8-4.4-5.5zM164 26.4h7.7c1.5 0 2.9.4 2.8 2.2-.1 1.6-1.4 2.1-2.8 2.1H164v-4.3zm7.7 13.3H164v-5.4h7.7c2 0 3.7.2 3.7 2.6-.1 2.2-1.7 2.8-3.7 2.8zm.9 6.2H167l-10.3 20.9h5.9l2-4.1h10.6l1.9 4.1h5.9l-10.4-20.9zm-6.4 12.9l3.5-7.6v.1-.1l3.5 7.6h-7zm10.4 69.5c3.3-.7 5.4-2.7 5.4-6.4 0-4.8-4-6.2-8.1-6.2h-14.1v21h5.3v-8.3h6l5.5 8.3h6.2l-6.2-8.4zm-3.4-3.8H165v-5h8.2c1.7 0 3.4.5 3.4 2.5 0 2.1-1.6 2.5-3.4 2.5z"/></g></svg>