<svg xmlns="http://www.w3.org/2000/svg" viewBox="0 0 111.98 44.8"><path fill="#444" d="M108.26 11.09c1.5 0 2.73 1.22 2.73 2.73s-1.23 2.73-2.73 2.73c-1.51 0-2.74-1.22-2.74-2.73s1.23-2.73 2.74-2.73zm2.37 2.73c0-1.3-1.06-2.37-2.37-2.37s-2.37 1.07-2.37 2.37c0 1.31 1.06 2.37 2.37 2.37s2.37-1.06 2.37-2.37z"/><path fill="#444" d="M109.49 15.31h-.5c-.03-.11-.04-.21-.04-.38 0-.64-.2-.81-.75-.81h-.53v1.19h-.48v-3h1.01c.642 0 1.29.14 1.29.87 0 .51-.39.68-.738.73.45.1.68.37.68.9 0 .21.02.42.057.5zm-.53-2.13c0-.35-.29-.51-.762-.51h-.53v1.09h.53c.493 0 .76-.19.76-.58zm-12.15 8.36l7.84 12.17h-8.11l-3.76-6.64-4.76 6.64h-8.19l9.03-12.2-6.92-10.34h8.27l2.67 4.78 3.09-4.78h8.3m-32.38 0h6.77m-3.38 24.44c2.34 0 4.24 1.89 4.24 4.23 0 2.34-1.9 4.238-4.24 4.238-2.34 0-4.24-1.9-4.24-4.238 0-2.34 1.9-4.23 4.24-4.23zM63.51 24.73l6.89 8.98h-8.52l-4.3-6.73v6.73h-6.76V11.17h8.86c2.63 0 4.76.74 6.16 2.14 1.25 1.25 1.88 2.94 1.88 5.04 0 3.1-1.63 5.5-4.21 6.38zm-1.84-6.04c0-.76-.2-1.32-.6-1.73-.8-.8-2.34-.91-3.49-.92v5.31c2.89-.03 4.09-.8 4.09-2.66zm-12.68-7.52v5.89h-5.14v16.65h-6.73V17.06h-5.14v-5.89m-1.82 0v22.54H23.4V11.17M26.78.81c2.34 0 4.24 1.9 4.24 4.23 0 2.34-1.9 4.25-4.24 4.25-2.35 0-4.24-1.91-4.24-4.25 0-2.33 1.89-4.23 4.24-4.23zm-5.44 13.47l-3.56 5.75c-1-1.66-2.97-2.73-4.96-2.73-2.84 0-4.92 2.31-4.92 5.15s2.08 5.14 4.92 5.14c1.99 0 3.96-1.07 4.96-2.73l3.56 5.76c-2.15 2.24-5.17 3.632-8.52 3.632-6.52 0-11.81-5.28-11.81-11.8 0-6.52 5.29-11.82 11.81-11.82 3.35-.002 6.37 1.398 8.52 3.648zm57.32-3.11v22.54H71.9V11.17"/></svg>