<svg xmlns="http://www.w3.org/2000/svg" viewBox="0 0 340 160"><g fill="#444"><path d="M52.6 40.7V96l35.5-25.2 19 13.5V40.7z"/><path d="M88.1 81.1l-35.5 25.2v15.9h54.5V94.6l-19-13.5zm5.3 29.3H82.8V95.7h10.5v14.7zm27.9-63c0-3.9.2-5-4.1-5-.6 0-2-.1-2-.9 0-.6.5-.8 1.1-.8 2 0 3.9.2 5.9.2 7.1 0 14.3-.2 21.5-.2 1.2 0 1 1.3 1 2.2v4.4c0 .5.3 2.4-.6 2.4-.6 0-.9-.9-1-1.3-1.7-5.9-5.5-6-11-6-1.1 0-4.3 0-5.3.4-.9.4-.8 2.2-.8 3v8.9c0 2.9.6 2.9 3.1 2.9 1.9 0 5.1.1 7.6-.2 1.6-.2 1.9-2.5 2.2-4.3.1-.4.2-1.1.8-1.1.3 0 .7.1.7.6l-.3 5.4c.1 2 .3 3.9.3 5.9 0 1-.4 1.1-.7 1.1-.6 0-.8-.7-.8-1.1-.3-1.8-.8-3.7-2.2-4-2.4-.6-5.7-.6-7.6-.6-2.5 0-3.1 0-3.1 2.1V73c0 4-.2 5.1 4.1 5.2.6 0 1.6-.1 1.6.8 0 .7-.5.8-1.1.8-2.4 0-4.6-.3-7-.3-2.4 0-4.8.3-7.1.3-.6 0-1.1-.1-1.1-.8 0-.8 1.3-.8 1.9-.8 4.4 0 4.1-1.3 4.1-5.2V47.4h-.1zM148.9 63c0-.8.1-3.1-.6-3.7-.3-.4-1.2-.5-1.7-.5h-.7c-.3 0-.7-.1-.7-.5 0-.7.8-.8 1.3-1 1.4-.4 3.9-1.9 4.8-3 .3-.3.6-.7 1-.7.6 0 .5.5.5.9v2.8c0 .2-.1 1.2.3 1.2.6 0 2.8-4.6 6.8-4.6 1.7 0 3.3 1 3.3 2.8 0 1.4-1 2.3-2.4 2.3-2 0-2.1-2.2-3.7-2.2-1.3 0-2.3 1.2-2.9 2.1-1.4 2-1.3 3.5-1.3 5.8v9.1c0 2.5-.5 4.4 2.6 4.7.6.1 1.6 0 1.6.7 0 .5-.3.6-.7.6-1.8 0-3.7-.2-5.4-.2-1.8 0-3.7.2-5.5.2-.4 0-.8-.1-.8-.6 0-.9 1-.7 1.6-.8 3.1-.3 2.6-2.3 2.6-4.7V63zm20.4 1.1c-1.8 0-2.4-.1-2.4 1.8 0 6.5 4.2 12 11.2 12 5.7 0 7.8-3.7 8.5-3.7.3 0 .5.2.5.5 0 .7-1.8 2.2-2.2 2.6-2.7 2.3-5.5 3.2-9.1 3.2-7.6 0-13.1-6.1-13.1-13.3 0-3.9 1.1-7 4.1-9.6 2.9-2.5 6.5-3.9 10.4-3.9 3.1 0 6.3 1.1 8.3 3.6 1.2 1.4 2 3.9 2 5.8 0 .5-.1 1-.7 1h-17.5zm4.8-1.4c1.8 0 5-.1 6.7-.5 1.3-.3 2.1-.9 2.1-2.3 0-1.2-.7-2.5-1.5-3.4-1.3-1.3-3.2-1.4-5-1.4-2.9 0-5.8 1.4-7.5 3.8-.5.6-1.4 2.1-1.4 3 0 .9 1.3.8 2 .8h4.6zm95.2 1.4c-1.8 0-2.4-.1-2.4 1.8 0 6.5 4.2 12 11.2 12 5.7 0 7.8-3.7 8.5-3.7.3 0 .5.2.5.5 0 .7-1.8 2.2-2.2 2.6-2.7 2.3-5.5 3.2-9.1 3.2-7.6 0-13.1-6.1-13.1-13.3 0-3.9 1.1-7 4.1-9.6 2.9-2.5 6.5-3.9 10.4-3.9 3.1 0 6.3 1.1 8.3 3.6 1.2 1.4 2 3.9 2 5.8 0 .5-.1 1-.7 1h-17.5zm4.7-1.4c1.8 0 5-.1 6.7-.5 1.3-.3 2.1-.9 2.1-2.3 0-1.2-.7-2.5-1.5-3.4-1.3-1.3-3.2-1.4-5-1.4-2.9 0-5.8 1.4-7.5 3.8-.5.6-1.4 2.1-1.4 3 0 .9 1.3.8 2 .8h4.6zm-15.2 11.2c0 2.5-.5 4.4 2.6 4.7.6.1 1.6 0 1.6.7 0 .5-.3.6-.7.6-1.9 0-3.7-.2-5.4-.2-1.8 0-3.7.2-5.5.2-.4 0-.8-.1-.8-.6 0-.9 1-.8 1.6-.8 3.1-.3 2.6-2.2 2.6-4.7V63c0-.8.1-3.1-.6-3.7-.3-.4-1.2-.5-1.7-.5h-.7c-.3 0-.7-.1-.7-.5 0-.7.8-.8 1.3-1 1.4-.4 3.9-1.9 4.8-3 .3-.3.6-.7 1-.7.6 0 .5.5.5.9l.1 19.4zm-4.5-28c0-1.5 1-2.9 2.6-2.9 1.5 0 2.4 1.4 2.4 2.8 0 1.6-.9 2.9-2.5 2.9-1.5 0-2.5-1.3-2.5-2.8m-34.1 30.5c-.5 0-1.2 1.4-2.6 1.4-1.8 0-2-2.8-2-3.5v-34c0-.5.1-.9-.5-.9-.4 0-.9.4-1.2.6-1.4.9-3.6 1.5-5.2 1.8-.3.1-.8.2-.8.6 0 .7 1 .6 1.5.6 2.8 0 2.2 2.5 2.2 4.7v5.5c0 .3.2 2.1-.5 2.1-.3 0-.8-.2-1.1-.3-1.9-.7-4-1.3-6.2-1.2-4.7.1-7.3 1.7-9.8 4.1-2.6 2.5-4 5.6-4 9.3 0 6.9 5.1 13.3 12.4 13.3 4.7 0 8-3.9 8.9-3.9.6 0 1 1.6 1.2 1.9.5 1.5 1.2 1.9 2.6 1.9 1.5 0 2.9-.9 4.1-1.7.4-.3 1.4-1.1 1.4-1.8 0-.3-.1-.5-.4-.5m-9.1-1.2c-1.6 1.9-4.4 2.7-6.8 2.7-6.4 0-10-5.9-10-11.7 0-5.8 3.8-10.7 10-11.3 1.9-.2 4.5.5 5.9 1.8 1.5 1.4 1.4 3.3 1.4 5.1v10.4c.1 1.3.3 2.1-.5 3"/><path d="M249.4 76.4c-.5 0-1.2 1.4-2.6 1.4-1.8 0-2-2.8-2-3.5v-34c0-.5.1-.9-.5-.9-.4 0-.9.4-1.2.6-1.4.9-3.6 1.5-5.2 1.8-.3.1-.8.2-.8.6 0 .7 1 .6 1.5.6 2.8 0 2.3 2.5 2.3 4.7v5.5c0 .3.2 2.1-.5 2.1-.3 0-.8-.2-1.1-.3-1.9-.7-4-1.3-6.2-1.2-4.7.1-7.3 1.7-9.8 4.1-2.6 2.5-4 5.6-4 9.3 0 6.9 5.1 13.3 12.4 13.3 4.7 0 8-3.9 8.9-3.9.6 0 1 1.6 1.2 1.9.5 1.5 1.2 1.9 2.6 1.9 1.5 0 2.9-.9 4.1-1.7.4-.3 1.4-1.1 1.4-1.8-.1-.3-.2-.5-.5-.5m-9.1-1.2c-1.6 1.9-4.4 2.7-6.8 2.7-6.4 0-10-5.9-10-11.7 0-5.8 3.7-10.7 10-11.3 1.9-.2 4.6.5 5.9 1.8 1.5 1.4 1.4 3.3 1.4 5.1v10.4c.1 1.3.3 2.1-.5 3M138.1 114L150 86.8c.3-.7.9-.7 1.6-.7h6.4c.6 0 1.7-.3 1.7.6 0 .8-.8.9-1.4.9-.7 0-2-.2-2.5.5-.7.8-.5 3-.5 4.1V116c0 .9-.1 3.2.6 4 .6.7 1.4.8 2.2.8.6 0 1.8-.1 1.8.7 0 .6-.6.7-1.1.7-1.9 0-3.7-.2-5.5-.2-2.3 0-4.6.2-6.9.2-.5 0-1.1-.1-1.1-.7 0-.9 1.2-.7 1.8-.7.9 0 2.1-.3 2.7-.8 1-.8.9-2.9.9-4V89.9h-.4l-12.8 30c-.2.4-.4 1-.9 1-.6 0-.8-.7-.9-1.1l-11.4-29.2h-.3v23.7c.1 3.6-.3 6.5 3.8 6.5.6 0 1.8-.1 1.8.7 0 .7-.8.7-1.3.7-1.7 0-3.5-.2-5.2-.2-1.7 0-3.5.2-5.1.2-.5 0-.9-.1-.9-.7 0-.7 1-.7 1.5-.7 3.2 0 3.4-1.5 3.6-4.3V90.9c0-3.1 0-3.3-3.1-3.3-.6 0-1.4-.1-1.4-.9 0-.9 1-.6 1.7-.6h6.7c1.1 0 1.2.7 1.5 1.7l10.5 26.2zm36.2-6c2.1-1 2.1-1 2.1-3.2v-2.5c0-2.8-.1-4.9-3.7-4.9-3.5 0-5.3 1.6-6.6 4.5-.4.9-.7 1.7-1.6 2.1-.6.3-1.8.7-2.5.7-.5 0-.7-.1-.7-.7 0-1.5 1.3-3.2 2.4-4.1 2.7-2.4 6.6-4 10.3-4 1.8 0 3.9.3 5.3 1.5s1.1 2.7 1.1 4.2v13.6c0 1.3-.1 4.6 2 4.6 1.4 0 2.1-1.4 2.6-1.4.2 0 .4.2.4.5 0 .6-1 1.4-1.4 1.8-1.1.8-2.6 1.7-4.1 1.7-2.8 0-3.1-4-3.9-4-.5 0-4.3 4.4-9.3 4.4-2.7 0-5.4-1.7-5.4-4.6 0-4.1 5.4-6.5 8.5-8.1l4.5-2.1zm-4.1 3.2c-2.2 1.1-4.5 2.6-4.5 5.4 0 2.3 1.8 3.3 4 3.3 2 0 4-.9 5.4-2.3 1.4-1.4 1.4-2.3 1.4-4.2v-3.5c0-.2.2-1.6-.4-1.6-.2 0-.5.2-.6.2l-5.3 2.7zm36.2-7.9c-1.8 0-2.9-6.2-7.5-6.2-2 0-4.3 1-5.8 2.3-2.7 2.3-4.2 5.8-4.2 9.3 0 5.9 4.3 11.9 10.8 11.9 2.5 0 4.8-.8 6.6-2.5.2-.2.6-.7.9-.7.2 0 .4.2.4.5 0 .6-1.3 1.7-1.7 2.1-2.4 1.9-5.2 2.8-8.4 2.8-7.1 0-12.9-5.9-12.9-12.8 0-7.8 7.3-13.9 15-13.9 2.2 0 5.2.6 7.1 1.9.7.5.5 1.8.5 2.5-.1.3.2 2.8-.8 2.8"/></g></svg>