<svg xmlns="http://www.w3.org/2000/svg" viewBox="0 0 340 160"><path fill="#444" d="M229.8 68.8c0 .4 0 .8.6 1.2.6-.7 1.5-.8 1.7-.8-.5-.6-1.3.1-2.3-.4zm-.5-9.3c0 .7.6 1 .7 1.1.6.4.8.4 1.4 0 .6.4.7-.4.8 0 0 1.1 0 1.7-.1 2.6-.1 1.2-1.2 1.1-2.2 1.7 0 .6-.6 1.5 0 2.1.6-.4 1-.6 1.8-1 0-.6.6-1.1 1.4-1.5 0-1.7.6-3.3.6-5 0-.4-.4-.8-1-1.1h-4.4c-.1.6.4 1.1 1 1.1zm10.6 9.9l1.9.8v-1H240l-.1.2zm-12.6-14.1c.8-.6 2.6-1.8 3.6-2.2-.1-1.8-2.2-2.1-3.2-2.8h-.7c-1.5.6-1.9 2.1-2.1 3.3.6 1.7 1.7.6 2.4 1.7zm7.8-.1c-.4-.4-1.5.1-2.1.4-.8.1-1.4.7-1.4 1.2h2.1c.3-.5 1-1.2 1.4-1.6zm3.8 4.3h-.4c.4 1.5.4 3.2.4 4.8.7.1 1.5.6 1.5 1.7.7.4 1.4.6 2.2 1.1.3-.1.6-.7.7-1.2-.7-1-2.3-.4-2.3-2.1l-1.1-.4c0-1.1 0-2.2-.3-2.9l.3-.3c0 .3.1.4.6.8.7 0 1.4.1 2.2-.4.3-.1.3-1.1.7-1.1s.7 0 1-.4c0 0 .4 0 0-.1l-4.1-.6c-.4.5-1.4.5-1.4 1.1zm-.5-4.2c.8 0 .6 1.4 1.2 1.5h1.7c0-.6-.1-.6-.3-.6-1 0-1-1.5-1.8-1.1-.3 0-.7-.4-1.2 0 0 .2 0 .2.4.2zm7.4 1h.6c.6-.6.8 0 1.2-.6.4-1 .4-2.6-.4-3.6-.3-.7-1.2-1.1-2.2-1.8l-1.2.7c-.8.4-1.1 1.1-1.1 2.1 1.2.5 2.6 2.1 3.1 3.2zm-8 48.1l-2.1.4c-.6.7-.7 1.1-.7 1.5l.8-.4c.3 0 .4.4.6.7-.1 1-1.2 1-1.7 1.4-.6 1.8 1.1 2.9 1.4 4.4h2.2c-1-1.7-1.1-4.3-1.1-4.8.1-1 .1-2.3.6-3.2zm2.1 1.5c-.4 0-1 1.1-1 1.5 0 1.5.3 3.5 1 5h1.4c0-1.7.3-3.5.3-5-.3 0 .1.3-1.7-1.5zm4.4.7c-.4 0-1.4.6-1.4 1 0 .8-.3 4.8-.3 4.8h1.2c.6-1.7 1.7-3.9 1.7-4.8.1-.8-.5-1-1.2-1zm23.9-1.1c.8.4.8 1.4.8 1.5 0 .6-.4 1.1-.8 1.5-.3-.4-.3-1-.7-1.5-.4 0-.6 1-.6 1.4 0 1.7.7 2.9 1.2 4h1.7c-.1-1.5-.6-2.8-.6-4.4 0-1 .6-2.1.8-2.6l-1.8.1zm18.3-3.9l-1.1-1.7c.4-.6.4-1.2 1-2.2.1 0 .7 1.2.7 1.5-.1 1.1-.1 1.4-.6 2.4zm-1.3 3.7c0-1-1.1-1.5-1.9-3.2l.8-1.2c.6.3 1.2.8 1.2 1.8 0 0-.1.6 0 1 0 .1.4.1.4.6-.3.5-.3.5-.5 1zm-2.6-8.5c-1.4 0-.6-2.6-3.3-2.6-.6 0-1 1-1.7 1.1 0-.1.1-1.2.1-1.2 0-.4.1-1.1 1-1.5 1.4 0 1.1.6 2.2 1 .6.1 1 .6 1.7.6v2.6zm-1 3.8c-1.2-.1-1.2-1.7-1.5-1.8-.8-1.1-2.2-.1-3-.1-.4-1.1.1-1.1.1-1.9.6 0 1.1-.4 1.7 0 1-.4 1.5.6 2.3.6.3.4.7 1.4.8 1.5 0 .6-.1.9-.4 1.7zm-1.8 2.6c-1-.6-1.5-.7-2.6-.7 0-.8-.6-1.7-1-1.7-1.1 0-1 .7-1.8.7l1.7-1.7c.1-.4.1-.4.6-.4.6.4.7.6 1.2.6 0 .4 0 .6-.1 1.1.6.4 1-.1 1.2.4.6.1 1.1.4 1.1 1.1 0 .4-.3.6-.3.6zm-3.6-28.1c.8-.4 1.1-.3 1.5 0 0 1.1 1.2.6 2.1 1 .3.6.6.8.7 1.7-1.2-.4-2.1-1-3.2-1-.3 0-2.1.6-2.2 1-.5-.9.4-2.5 1.1-2.7zm-.5 4.8c.6-.6 1.5-1.4 2.2-1.4 1.4 0 2.5 1 2.5 1.9-1.1 0-1.4-.3-2.1-.3-1 0-2.1.4-2.6 1.4-.4-.6-.2-1 0-1.6zm5.8 2.3c.6 0 1-.3 1.2-.3 1 0 1.7 1.4 1.9 2.5-1.5-.8-3.7-1.4-5.1-1.4-.7 0-2.9.8-3.7 1.7l-.3-1.7c1.1-.3 1.1-1.1 1.8-1.1.6 0 1.4-.3 1.9-.3.6 0 .8-.3 1.1-.3.9.1.6.9 1.2.9zm2.1 10.5c-.6-.3-1.9-.4-1.9-1 0-.8-.4-1-1.2-1-.8 0-1.4.1-2.5.6 0 0-.6-.7-.7-1.5.4-.1 1.8-.6 2.6-.6 1.2 0 2.6 0 2.6.6 0 .9 1.1 1 1.1 2.9zm-1.1-5.1c-.4-.3 0-1.1-1-1.1-.4 0-1 .6-1 .6-.4.3-1.5-.6-1.5 0 0 1-.7 1.4-1.7 1.4-.3 0-.7 0-1.1-.3v-1.8c2.5 0 2.2-.8 3.3-.8.8 0 1.4.4 1.9.4 1 0 .4-.4 1.2-.4 1 0 1.4.8 1.9 1 0 .6.6 1.4.6 2.1-1.3-.1-2.5-.5-2.6-1.1zm-10.1 5.7c-.4-1.1-1.1-2.3-1.5-3.5 0-.1-.1-.1.1-.3.3 0 1 0 1 .1.3.4.6 1 .6 1.5-.1.8-.4 1.4-.2 2.2zm-2.7 1.8c-.6 0-.6-.4-.6-1.1-.1-1.1-.6-2.1-1-3.2-.3-1.5-1.2-2.8-2.1-4.4-.1-.8-1.1-1.1-1.8-1.7 1 0 1.8 0 2.6.7 0 .4.1.6.7 1.1 1.4 0 1 1.7 2.1 2.5-.6.6-.7.8-1.1 1.2.6.4 1.1.6 1.2 1.1.2 1.2 0 2.6 0 3.8zm-2.9 4.4c.3-.8.3-2.8 0-2.8-.4-.1-1.2 0-1.2-.4 0-.6.3-1.2.3-1.7 0-.7-.6-1.1-.6-1.4 0-1.1 1.2-1.4 1.7-2.1.1.7.1 1.5.1 2.3 0 .4.6 1.5 0 2.5 0 .6 1.1.1 1.1.7 0 1.1-1.1 2.2-1.4 2.9zm-1.8-9.7c0 .4-.6.8-.7.8 0 0-1-1-1.1-1.9-.1-.7.6-1.9.6-1.9.1 0 .4.3.6.3.1.3 0 .8.1 1.4.5.2 1 1.1.5 1.3zm-1.9 8.1c0-1.1-.3-2.1-1-2.8 0-.4.6-.4.1-1 0 0-1.1-.6-1.1-1.2 0-.7.8-1.4 1.1-1.9 0-.1.8.4.8 1.5 0 .3 0 .8-.3 1.1-.1.6 1.1.6 1.1 1.1.1 1.1-.5 2.1-.7 3.2zm-1.6-14c.6.6 1.2 1.4 1.2 1.9 0 .6-.4.7-.7 1.1 0 0-.8-1-.8-1.4 0-.6 0-1 .3-1.6zm8.2-.3c.4.3.7.6 1.1 1.1v1.5c-1.7-1-2.6-2.6-4-4.3 1.4.1 1.8 1.5 2.9 1.7zm-12.5-3l1.4-.7c.6.6 1.4.7 1.7 1-.6.5-2 .7-3.1-.3zm1.8 23.2c-.4-.6-.6-1.1-1-1.1.6-2.1-.6-3.7-.8-5.4v-.6c.6 1 1.9 1.9 1.8 2.8.1 1.7.1 3.2.1 4.3h-.1zm-2.7 2.8c-.3-1.1-.7-2.8-2.1-2.8-.1-.7-.3-1.1-1.1-1.7l-1.4-.1c.1.7 1.2.7.6 1.8.7.6 1.2.6 1.7 1.5.3.6 0 1.2.1 1.7l-1.1.6c0-1 .1-2.8-1.1-3.2-1.1.4-1.2-1.1-2.1-1.7-.4 0-.4-1-1-.6-.8.6-1.9 0-2.9.6l1-1.5c.7-.6 1.4-.3 2.2-.6l1.5-.1c1.4 0 2.8.7 4.3 1.2.7.4 1.1 1 1.1 1.9.3.1 1.1.1 1.1.7-.2.5-.5 1.6-.8 2.3zm-5.6.4l-.6.6c-.7-.6-.3-2.1-1.2-2.2-.8 0-1.7-1-1.9-1.1l.7-.4s.4-.1.7 0c.4.4.8.6.8 1 .3.6 1 0 1.2.6.3.4.4 1.1.3 1.5zm-6-6.9l.8-2.2c.8 0 1.4-.3 1.7-.3.8-.3 1.4-.3 1.9-.3v.3c2.1 0 4.4-.3 5.9 1.4l.1 1.5c-.7-.6-1.8-.6-2.2-1.5-.7-.1-1.2-.1-2.2-.1-.7.1-1.7.1-2.5.1-.1 0 0-.1-.3-.3-.9.3-2.1.3-3.2 1.4zm-.8-16.5c-1.1-1.7-.6-3.2 0-4.6.4 1.1.6 2.3.8 3.2.1.8 1.2 1.1 1.7 1.7-.8.3-2.1.6-2.5-.3zm-2.1 7.1c-1.1-1-1.8-2.1-2.9-3.6l2.9.6c.6.4 1.7 1.7 2.2 2.2-.2.4-1.3.8-2.2.8zm0 4.9c-.1 0-1.4-.6-1.8-1-.1-.6-.1-1.1-.1-1.1h1.4l1 2.1h-.5zm-3.3-20c-.1 0 0 .6-.1.6 0 .4-.4 1.1-.4 1.8-.4.3-1.1.6-1.8.3v-.6c-.3-.4-.3-1.1-.3-1.5l-.1-.1c-.6.1-.6.6-.6.8-.1.4-.6.8-.6 1.4-.7 0-1.1-.3-1.7-.6V76c0-.4 0-.4-.3-.4l-.8 1c-.8-.6-1-2.1-1-3 3-1.7 6.6-1.1 9-.1.3.1.7.1 1.1.3-.3 1.1-.6 2.9-1.8 3.6.1-.8-.2-1.2-.6-1.8zm-2.2 9.7l-.4-1.9c.6-.3 1.1-.7 1.9-1.7 0 1.4-.2 3-1.5 3.6zm-1.2 10.9l-1.1-1.5h2.8l.6 1.1c-.9.5-1.5.5-2.3.4zm-2.7-3.5c.1-.6.7-.8 1.1-1.4s1.1-1.5 1.2-2.1c1-.6 1.4-.6 2.1-.6-.1 1.1-.7 1.5-1.7 2.8-.4.5-1.6.8-2.7 1.3zm-.5-11.1c.6 0 1.1 0 1.7.4 0 .8.4 1.7.4 2.8-1.3-1.2-2.1-2.1-2.1-3.2zm-.6 8.2c-.6 0-1.5.4-2.6 0 .6-.3 1.1-.6 1.8-1.1l1.5-1.4h1.5c-.5 1.2-1.1 2.3-2.2 2.5zm-2 9.2c-.4-1.2-1.2-2.6-2.5-2.6-.6-.6-1.1-1.1-1.2-1.7-.6-.6-1.1 0-1.8-.6-.8 0-1.8 0-2.5.6v-.6l1.2-1.4c1.4.1 3 0 3.5.8.8.6 1.8 1.1 2.1 1.5v.6c.3.1 1.1.4 1.4.6-.1.6-.2 2.8-.2 2.8zm-2.1 4.2c-.4-.6 0-1.5-.6-2.1 0-.3.4-.6.1-.7-.1-.4-2.3-1.1-2.3-1.1-.7-.6-1.7-1.1-2.5-1.8-.7-.3-1.2.1-2.2.3v-.3c.4-.8.4-1.8 1.5-1.8.6 0 1.2 0 1.7.6.8 0 1.1.8 1.7 1 1 1 1.7 1.4 2.2 1.7 0 .6.3 1 .6 1.1 1.2 0 .8 1.1 1.2 1.9l-1.4 1.2zm-2.1 3.4l-1.2-3.3c-1.5-1.5-3.2-1.7-4.1-2.3-.7-.3-.7.3-1.1 0 0-.4 0-1 .6-1.5h1.1l1.1.6c.6.6 1.9.6 1.9 1.7 0 .1-.1.4.4 1.1l1.8.6.1 1.5-.6 1.6zm-7 3.6c0-1 .6-2.1.6-3.2 0 0-.7-.7-1.5-.7-.6.3-.6.7-.7 1.2-.6 1.1-1.7 2.2-1.8 3.3-.3 0-.3-.1-.3-.1 0-1.8.3-5 1.4-6.4.8-1.1 1.7-1.1 2.8-1.2l1 .1-.8 1.1c.8.4 1.9 1.1 1.9 2.2-.1 1.6-2.6 3.7-2.6 3.7zm-4.6-2.7c-.3-.7-.8-1.7-1.8-1.7-.7 1.5-.8 2.1-.1 4.3-.6.6-1 .7-1.7 1.1-.4-.7-.4-2.1-.4-2.8 0-1.4.3-2.6.6-3.7.6-.6 1-1.5 1.5-2.1h2.1c-1 0-1 1-1 1.5.6.1 1.4.4 1.4 1.2s-.3 1.7-.6 2.2zm-4.3 0c-.3 0-.8-.6-1.4-.6-.6 1.1 0 1.9 0 3.2 0 .6-.1 1.1-.1 1.1-.4 0-1.1-.7-1.2-1.5v-2.9l1.7-2.1c1 .8 1.3 1.9 1 2.8zm11.9-24.8c.1-.7.7-1.1.8-1.2.6.1 1 .1 1.8.3-1 1-1.9 1.4-2.3 2.5 0-.7-.1-1.2-.3-1.6zm.2-21.6l1.5-.6-1 1.1c.1 1.8-.6 3.2-.6 4.8l-1-3c.4-.6.5-1.3 1.1-2.3zm0-3.7c.4-.6.6-1.1 1.1-1.7v2.2l-1.2.4.1-.9zm6.4 29.4c.3-.3.4 0 .8 0l-.8 2.8c-1 .7-2.2.3-3.3.3 1.6-.3 2.7-2 3.3-3.1zm-1.7-2.3c0 .8-.4 1.8-1.4 2.6-.1.3-.7.6-.7.6 0-1.1.6-2.1.6-2.9.5-.3 1-.6 1.5-.3zm2-2.3c-1.2-.3-2.5-1.4-3-2.3-.4-.8-.6-1.7-.6-2.2.7 0 1.2.6 1.5.8v.3c.9 1.1 1.8 2.1 2.1 3.4zm2.4-2.9l-.6 2.3c-.6-1.1-1.1-2.2-1.2-3.5l1.8 1.2zm11.4 5.4c-.8-.6-2.6-.8-2.2-1.9.4-.8 1-1.1 1.4-1.4.1 1.3.3 2.2.8 3.3zm-17.2-34.8c.4 0 1-.1 1.1-.6 1-.1 1.5-1.1 2.6-.6.8 0 1.5.4 2.1.6 0 .4 0 .6.4 1 1.1 0 1.1 1.1 1.7 2.1.6.1 1.1.1 1.5.1 1.1.4 1.9.4 2.3 1 1.5-1 2.9-1.1 4.7-1 .1-.6.6-1.2.7-2.2.1.6.1 0 .6 0 .7-.6 1.7-1.5 3-1.1.7.6 1.9.1 2.8 1.1.6.7.8 1.8 1.4 2.8-.6 1.1 0 2.6-1.1 3.2l-1.1 1.1c-.3 0-.3.4-.8.4.6 1.2.1 3.2-.4 4.4.4-.1 1-.1 1-.7.1.1 0 .6 0 .7v.6c0 1-.6 1.9-1.4 2.6-.3 1.1-1.2 2.6-2.6 2.8v.4c2.9 0 5.1.7 7.7 2.1v1.2c-2.3-1.2-4.7-2.2-7.5-2.5 0 .7 0 1.2-.3 1.4 2.3 1.1 4.3 2.1 6.2 3.7v1.7c-1.9-1.9-3.9-3.7-6.4-4.3-.1.4-1 .7-1.1 1.5-1.2-1-2.8-1.9-4.3-2.1-.6 0-1-2.1-1-2.1 1-.4 1.5-1 1.9-1.8h.7c.6 0 .6-.4.6-1 0-1.1-2.3-1.1-3.5-1.1-1.4 0-2.2 0-3 .6-.4 0-.1.6-.1 1 0 .1.6.6.6.6.4 0 .7-.4 1.1-.4-.1 1.1.1 1.7 1.2 2.2l-.1 1.9c-2.2 0-3.7.8-5.4 1.7-.6-.4-1-1-1.2-1.5-2.3.7-6.2 3.7-6.2 3.7v-1.4c1.7-1.4 3.9-2.2 5.7-3v-1.4c-.8-.4-1.5 0-2.3 0-1.7.1-3.3 1-4.4 1.9 0-.6-.1-1.4-.1-1.4 2.1-1.1 4.6-2.1 7-1.7v-.7c-.1-.4-.1-1-.6-1-1.1-1.1-2.2-2.8-2.2-3.9l.7-.4c-.4-1.1-.7-3.9 0-4.8-1.1-.6-2.2-1.5-2.6-2.2-.3-1-.7-1.5-.8-2.6.3-1.1.6-1.5 1.2-2.6zM251 63.5c0 .3-.3 1.9-.3 1.9l-1.5.4 1-4.1c.2.7.8 1.5.8 1.8zm.2 14.2l1.8 1.7c-1.1 0-2.3.6-2.9-.6.3-.3.7-.8 1.1-1.1zm1.4-9.1c.4.7.4 1.1.8 1.5.7-.4.7.6.8.7.3.6.7 1.1.7 1.7-1.2 0-1.8-.6-2.3-1.7 0-.6-.1-1.4 0-2.2zm3.6 8c-.1.7-1 0-1.1 0h-1.7c-.3-.4-.4-.6-.4-1 .7-.3 1.2-.6 1.9-.3.3.7.8 1.3 1.3 1.3zM247 96.2c0-.6.3-1.1 1.1-1.5 1.1.4 2.1-1.9 3.2-.7.6.1 1.1.1 1.4.1 1.4.6 1.7 1.7 2.3 2.6-1 0-1.8 0-2.3-1-.1 0-.6-.6-.7-.1-1 .7-1.8-.6-3-.4-.6.6-1.1 1-1.9 1.1l-.1-.1zm1.9-11.5c.8-.6 1.8-.6 2.1-.8.8.8 1.5 2.1 2.8 2.9-.7 0-1.9 0-2.8-.6-1.1-.6-1.6-.9-2.1-1.5zm-.3 2.9c.6.3 1.5.8 2.1 1.1h-.6c-2.1.8-3.7-.6-5.4-1.7.8-.3 2.2-.6 3.3-.6.1.1.6 1.2.6 1.2zm0-6c-1 .1-1.7-.7-2.6-1.1-.4-1.1-.4-2.2-.7-2.8.7.6 2.3.6 1.9 2.2 0 .6.9 1 1.4 1.7zm9.7 2l-1 .3c-2.1 0-3-.6-3.9-1.2.7 0 1.7-1 1.7-1 1 1 2.2 1.7 3.2 1.9zM288.9 59c-.6-.7-1.4-1.7-2.1-1.7.6 0 1.2-.6 2.2-.6.4 1 1.1 1.5 1.2 2.2l.3 1.1c-.3-.5-1-1-1.6-1zm-5.9-2.7c-.4-.6-1 0-1.4 0s-.6 0-1.2-.6c1.1 0 1.7-.6 2.6-1 .7.6 1.4.8 1.9 1.5 0 .1-1.9.1-1.9.1zm18.1 9.6c-2.6-2.6-5.5-3.9-7.7-6.5-1.1-1.1-2.1-2.2-2.8-3.7-1-1-1.5-1.5-2.6-2.1.1.6.4 1.1.6 1.7h-.1c-1 0-1.9-.6-2.6-1.1l.7-.7c-.1-.4-.7-.4-1.1-.4-2.9-.6-5.8 1.1-8.7 1.7v.4c1.8.6 2.2 2.8 3.3 3.9h1.1c.4 0 1 .4 1.4.4 0-.4-.4-1.1-.4-1.1.4-.4.7-.4 1.1 0 1 .6 2.2-.4 3.2 1.1-1.1 0-2.2 0-3.2.6 0 .1.6.6.4 1-1-.4-2.1 0-2.5-.8l-.1.3c1.1 1.2 2.8 2.3 4.4 2.9 2.5.4 4.4-.7 6.9-.1 8.6 4 14.5 13.7 14.5 23.3 0 13.8-7.9 19.3-12.8 19.3-1 0-2.5-.6-3-1.1.6-2.1 1-4.3 1-7.6 0-8-3.2-16.6-7.5-21-1.9-2.1-4.3-3.7-6.6-3.7-1.1 0-2.2 0-3 1-.8.7-1.4 2.2-1.2 3.2-1.5 1.1-3.9 1.7-5.8 1.7-2.1 0-4.6-.8-7-2.6v-2.8c-.6-.3-2.3-1.4-1.5-2.2.6.1 1 .6 1.1.7-.1-1.2-.1-2.8-1.1-3.9-.3 0-.8 0-1.4-.4-.6-.6-1.1-1.2-1.1-2.2.6 1 1.4.6 1.9 1.1-.8-2.2-.6-3.2-2.2-6.5-.3-1.7-2.1-2.6-3.2-3.7-.6-.4-.7-1-1.4-1-.8-.1-.8-1.1-.8-1.7.3 0 .8.4 1.1.6-1.1-2.6-1.8-5.4-4.3-6.9l-.6.4h-2.9c.4-.4 1.1-.6 1.7-1-.6-.6-1-.7-2.1-.7-.6.1-1.2.7-2.1.7h-.1c0-.6-.1-1.2 1-1.7-1.1-.1-2.1-.1-3.5 0-.1 1-.7 1.5-.7 2.2-.6.4-.7 1-1.2 1.5 0-1.1.6-2.2.7-3.3-.7.1-1.7.7-2.1.7-1.4-.7-3.3-1.4-4-1.4 1.1.7.6 1.9.7 2.9l-.7-.4c-.3-.7-1.1-1.2-1.4-2.2-1.1 0-1.8.4-2.8 1v.1c.6 0 1.4.6 1.7 1.1-1.2 0-2.2-.6-3.5-.6 0 0 0-.1-.3-.1-.6.1-1.1.7-1.4 1.1-1.4 1.1-2.3 2.1-2.9 3.7.4 0 1 0 1.1.1-.7.3-1.1 1.1-1.8 1.4v2.8c-.6.6-1.2 1.1-1.7 2.2-1 3-1.1 6.4-1.1 10.1-.3.7-.6.8-1 1.1v2.9s1.1-1.1 1.7-1.4v2.3c-.7 0-1.2 1-1.2 1.5 0 .7.1 1.4.1 2.2 0 .4 0 .4.1.7 0-.3.4-.7 1-.8 0 0 .4-.4 1.1-.4-.6.6-.7 1.2-1.1 2.1l-.6.6s-.1.3-.1.6c.7 3.9 1.8 7.2 3.3 10.9-1.5 2.5-3.2 7-4.3 11.5-1-.8-2.2-1.1-3.3-1.1-1.1.3-2.2.6-3 1.7-1.1-.6-2.5-.3-3.3.4-1.7 1.5-1.7 2.2-1.7 3.3-.4.4-1.1 1.4-1.1 2.6 0 1.7.1 2.8 1.1 4.3H234c-.3-.6-.7-1.2-1-1.7-.6-1.1-.3-2.6-.3-3.7.6-1.1 1.2-2.2 1.9-3.2.1-.6 0-.6.1-.7l1.4-.4c.7 0 1.2-.6 2.2-.6.6 1 .6-.6 1.5-1 1.9-.3 4 0 5.1 1.5 0 .4.3.4.3.6h-1c-1.1-.6-2.5-1.1-3.7-.6 0 .6-.1.6-.1 1.1v1c.7 0 1.2.7 1.9 1.1.4-.6 1.5-1.1 2.3-1.1.8 0 2.2.6 2.2 2.1v2.1c.7.7 1.7.8 2.5 1.2-.3.7-.8.7-1.4.7h-1.5c-.1-.1-.6-.1-.6-.7-.6.7-1 1.5-1.2 2.2h21.7c-.4-.7-.8-1.2-1-1.7-.4-1.1-.4-2.6-.4-3.7l2.1-2.8c1.1 0 2.1-.4 4.1-.6.3-.6 0-1 1.7-1 1.2 0 2.2.4 2.6.6.1.4.1.4 0 .8-.4.3-1.1-.4-1.7-.3-.4.4.1.6.1 1 .4.4-1.7-.4-1.7-.4s-.4 1.1-.6 1.5l1.1 1.1c.4.6-.6 1.1-.6 1.7-.4-.1-1.1-.7-1.1-.6-.4 1.5 0 2.8-.3 4.3h2.1l.3-3.2c.1-1.8 2.3-5.1 3.7-5.1.7 0 1.2.3 1.8.7.4.7 1.2 1.1 1.2 1.5 0 .3-.6.6-1.4.6-.4 0-.4-.6-1-1l-1.1 1.1s1.2 1.1 1.2 1.9c0 .8-.1 1.2-.7 1.8l-1.1-2.2c-.6 0-1.5 1.1-1.5 1.7 0 .7-.4 1.1-.4 2.2h11.6c1.2 0 2.3-.4 3.7-1.1h2.2c4.6 0 8.3-1.2 11.6-4.7 4.6-4.4 7.2-11.5 7.2-18.4.5-8.2-3-16.3-8.9-22.3M29.5 112.4v-2.1c4.5 0 7.7-.3 7.7-6.9V68.8c0-6.6-2.4-6.9-7.7-6.9V60H56v1.9c-5.4 0-7.7.3-7.7 6.9v34.5c0 6.6 2.8 6.9 7.7 6.9v2.1H29.5zm91.3-39.8v40.2h-3.2L77.5 71.3c.2 1.1.2 2.1.2 3.2v25.1c0 7.9 0 10.6 7.1 10.6v2.1H65.9v-2.1c7.1 0 7.1-3.3 7.1-10.6V70.9c0-4.3 0-9-7.5-9V60h17.7l33 33.8c-.2-.8-.2-1.4-.2-2.8V72.6c0-7.5.2-10.6-6.9-10.6v-2H128v1.9c-6.9 0-7.2 3.1-7.2 10.7zm65.1 22.1v13.4c-7.5 3.7-14.5 5.7-21.6 5.7-19.6 0-31.4-11.6-31.4-26.2 0-15.6 13.5-28.7 30.6-28.7 4.3 0 7.5.8 10.9 1.9 2.3.7 3.9 1.7 5.4 1.7 1.2 0 1.7-2.2 1.8-3.6h1.9l1.7 18.1H183c-1-3.5-2.6-6.5-4.8-8.6-3.6-3.5-8.4-5.4-14.1-5.4-11.7 0-18.6 9.4-18.6 23.3 0 13.8 8.4 23.3 19.6 23.3 3.3 0 6.4-.8 10.1-2.5V93.3c0-4.4-.7-6.1-7-6.1v-2.1h23.6v2.1c-6.1 0-5.9 1.8-5.9 7.5"/></svg>