<svg xmlns="http://www.w3.org/2000/svg" viewBox="0 0 340 160"><path d="M258.893 58.303h-30.716l7.588-28.065-26.054 28.065H87.304s-.458 0-.458.274c0 .183.183.274.458.274l120.121 1.92-15.083 16.18s-.275.275-.092.458c.092.091.274 0 .457-.091l17.095-16.455 15.267.274-2.925 13.072-49.274 26.511s-.366.183-.274.366c.091.183.274.091.457 0l48.45-24.043-5.484 24.774s-.092.366.091.457c.183 0 .274-.091.366-.274l6.947-25.87 35.47-17.827m-46.531 0l16.82-16.272-3.656 16.272h-13.164zm15.175 2.834l18.284.274-21.483 11.519 3.2-11.793zM2.834 113.976h5.394l-2.103 9.781h4.937l-.823 3.657H0l2.834-13.438m24.043 6.674c.64-3.017 1.371-3.566 2.194-3.566s1.371.549.64 3.565c-.64 3.108-1.371 3.566-2.194 3.566s-1.371-.458-.64-3.566m-5.577 0c-.914 4.205.823 7.13 5.485 7.13s7.588-2.925 8.502-7.13-.823-7.13-5.485-7.13c-4.662.091-7.587 2.925-8.502 7.13zm36.842 1.737c-.823 3.748-4.114 5.302-7.405 5.302-4.754 0-6.308-2.834-5.394-7.13.731-4.205 3.84-7.04 8.41-7.04 3.383 0 5.943 1.372 5.12 5.303h-4.937c.275-1.554-.274-1.828-.914-1.828-1.371 0-1.828 1.37-2.285 3.565-.457 2.011-.64 3.565.731 3.565.731 0 1.28-.366 1.646-1.828h5.027m13.53-8.319h5.211l-1.188 5.76 4.022-5.76h5.576l-4.936 6.308 2.56 7.13h-5.76l-1.828-6.033-1.28 6.033h-5.21l2.833-13.438m30.808 8.502h-2.286l-1.097 4.936h-5.302l2.834-13.438h5.394l-1.006 4.48h2.285l1.006-4.48h5.302l-2.834 13.438h-5.393l1.097-4.936m19.563-8.502h10.239l-.732 3.474h-5.119l-.366 1.462h4.754l-.731 3.474h-4.754l-.274 1.554h5.302l-.731 3.474h-10.422l2.834-13.438m23.038 0h10.238l-.732 3.474h-5.119l-.366 1.462h4.754l-.731 3.474h-4.754l-.274 1.554h5.302l-.823 3.474h-10.421l2.925-13.438m27.699 3.017h.549c.823 0 1.28.274 1.554.822.274.549.183 1.554-.183 2.834-.274 1.28-.548 2.286-1.097 2.834-.457.549-1.005.823-1.92.823h-.548l1.645-7.313m-7.496 10.421h6.674c4.113 0 7.313-2.56 8.227-6.582.823-4.022-.274-6.856-5.668-6.856h-6.307l-2.926 13.438zm50.371-9.599h-.091l-3.931 9.6h-4.937l.183-9.6-2.103 9.6h-4.48l2.835-13.44h7.405l-.183 7.954 3.2-7.953h7.404l-2.834 13.438h-4.57l2.102-9.599m20.934 4.115l2.286-5.12v5.12h-2.286M229 127.413h5.12l1.005-2.194h3.84l.09 2.194h5.486l-1.463-13.438h-6.948L229 127.414zm34.281-7.861l.549-2.56h.457c1.005 0 1.645.183 1.463 1.189-.183 1.006-1.006 1.371-2.103 1.371h-.366m-6.947 7.862h5.21l1.006-4.845h.64c.914 0 1.097.274 1.097.914-.092 1.189-.274 2.834-.183 3.84h5.21c-.182-2.011.275-3.931.184-5.12 0-1.005-.64-1.645-1.92-1.737 2.102-.457 3.017-1.645 3.382-3.2.549-2.559-1.005-3.382-3.84-3.382h-7.861l-2.925 13.53zm29.984-9.873h-3.29l.73-3.565h11.976l-.731 3.565h-3.382l-2.103 9.873h-5.302l2.102-9.873m21.666-3.565h5.394l-2.926 13.438h-5.302l2.834-13.438m18.375 0h6.4l1.096 8.136h.092l1.737-8.136h4.296l-2.834 13.438h-6.399l-1.097-8.227h-.091l-1.737 8.227h-4.297l2.834-13.438" fill="#444"/></svg>