<svg xmlns="http://www.w3.org/2000/svg" viewBox="0 0 340 160"><style>.st3{fill:#fff}.st4{fill:#969898}</style><path d="M228.9 80c0 35.4-29.2 64.5-64.6 64.5S99.7 115.4 99.7 80s29.2-64.5 64.6-64.5c35.4 0 64.6 29.1 64.6 64.5" fill="#444"/><path class="st3" d="M178.9 114c27.5 11.3 22.8-17.3 8.1-39.3-8.3-12.4-19.2-22.8-26.1-27.8-22.8-16.7-36.7-6.5-20.7 26.2 5.2 10.6 11.9 17.7 17.1 24.5 4 5.1 11.7 7.7 9 10.2-3.1 2.8-10.5-9.4-10.5-9.4-5.5-6.6-10.7-13.7-16.1-23.4-12.3-22.2-10.6-44.8 11.8-35 19 8.4 37.1 31.9 44.4 48.5 3.4 7.7 12.5 38.1-16.7 25.9"/><path class="st4" d="M93.1 99.1c12.1-8.1 23.6-13.3 43.2-19.8 27.5-9.1 48.2-15.2 73.7-28 12.4-6.2 30.7-18.3 38-29.9-2.1 4.3-8.5 12.9-11.5 16.7-34.5 43.2-107.9 40.7-143 61.5"/><path class="st3" d="M110.7 67.6c11.1.1 10 0 10.2.1.2 0 8.9 14.9 8.9 15.1 0 .1-.1-5.3-.1-12 0-.8-2.1-3-2.1-3 3.2 0 7.3.1 7.3.1-1.6 1.8-1.9 1.7-1.9 2.8 0 3.6-.1 10.3 0 17.7 0 1.1.8 1.6 2.2 3.5H125c-3.3-5.5-9.4-15.8-9.3-15.8 0 0-.1 6.5.1 11.6.1 1.7.8 2.3 2.3 3.8 0 0 1.6 0-8 .1 2.9-1.6 2.5-3.5 2.5-3.6-.1-7.1 0-13.3 0-17.2 0-.6 0-.6-2.1-3m34.9 10.8c.9-3.2 1.7-6.1 2.1-8 .1-.3-.7-1.5-1.9-2.7l-.1-.2h12.1c1.6 3.9 5.3 15 8.1 21.8.7 1.8 2 2.1 2 2.1-5.1-.1-14.4 0-14.4-.1 2.5-2.3 2.2-2.3 1.1-5.6h-7.9c-1.6 3.8.5 5.5.8 5.5-1.8.1-7.9 0-7.9 0 3.3-2.3 3.1-3 3.1-3 .9-3.1 2-6.6 2.9-9.8h3.2c-.7 2.2-1.4 4.5-1.4 4.5h6.3l-3.5-8.9s-.7 2.2-1.4 4.5h-3.2m54.2.2c.9-3.2 1.7-6.1 2.1-8 .1-.3-.7-1.5-1.9-2.7l-.1-.2c5.9 0 12.1.1 12.1.1 1.6 3.9 5.3 15 8.1 21.8.7 1.8 2 2.1 2 2.1-5.1-.1-14.4 0-14.4-.1 2.5-2.3 2.2-2.3 1.1-5.6h-7.9c-1.6 3.8.5 5.5.8 5.5-1.8.1-7.9 0-7.9 0 3.3-2.3 3.1-3 3.1-3 1-3.1 2-6.7 2.9-9.9h3.2c-.7 2.2-1.4 4.5-1.4 4.5h6.3l-3.5-8.9s-.7 2.2-1.4 4.5h-3.2m-10.1-5.4c-.1-4.6 0-6.1 0-6.1-2 1.6-1 1.4-6 .6-14.5-2.4-15.6 11.1-7.7 14.2 6.6 2.5 9 3 8 5.4-.3.8-6.3 3.6-12.6-2.1l.1 8c.8-.8 2.9-2.3 2.9-2.3.1 0 6.7 2.9 12.8-.1 9.3-4.7 4.6-12.4-5.2-15.4-8.3-2.5-.6-8.4 7.7-2.2"/><path class="st4" d="M248.1 21.7c-9.8 29.2-49.3 51.7-82.5 73.3-20 13-39.9 27.9-53.6 40.7-3.6 3.4.7-1.3-.6.2 19.1-22 41.1-35.1 53.2-43.3 20.5-13.9 32.2-17.5 67.6-50.1"/><path class="st3" d="M178.9 114c27.5 11.3 22.8-17.3 8.1-39.3-8.3-12.4-18.6-22.3-26.1-27.8-8.7-6.4-9.5-7-9.5-7 19.4 9.2 37.1 31.9 44.4 48.5 3.4 7.7 12.5 38.1-16.7 25.9m-13.9-93c0 .3-.2.5-.5.5s-.5-.2-.5-.5.2-.5.5-.5.5.2.5.5m3.6 8c0 .4-.3.6-.6.6-.4 0-.6-.3-.6-.6 0-.4.3-.6.6-.6s.6.2.6.6m9.5 13c0 .4-.3.6-.6.6-.4 0-.6-.3-.6-.6 0-.4.3-.6.6-.6s.6.3.6.6m-15.2-8.5c0 .3-.2.5-.5.5s-.5-.2-.5-.5.2-.5.5-.5c.2 0 .5.2.5.5m5.6 3c0 .3-.2.5-.5.5s-.5-.2-.5-.5.2-.5.5-.5.5.2.5.5m-7.3-8.4c0 .4-.3.6-.6.6-.4 0-.6-.3-.6-.6s.3-.6.6-.6.6.3.6.6m-8.6 5.2c0 .3-.2.5-.5.5s-.5-.2-.5-.5.2-.5.5-.5.5.2.5.5m1.5 1.1c0 .3-.2.5-.5.5s-.5-.2-.5-.5.2-.5.5-.5.5.2.5.5m1.6 1c0 .3-.2.5-.5.5s-.5-.2-.5-.5.2-.5.5-.5c.2 0 .5.2.5.5m-2.4 2.1c0 .3-.2.5-.5.5s-.5-.2-.5-.5.2-.5.5-.5c.3-.1.5.2.5.5m-12.2 8.5c0 .3-.2.5-.5.5s-.5-.2-.5-.5.2-.5.5-.5.5.2.5.5m2.3 2.8c0 .3-.2.5-.5.5s-.5-.2-.5-.5.2-.5.5-.5c.2-.1.5.2.5.5m-1.8 44.4c0 .3-.2.5-.5.5s-.5-.2-.5-.5.2-.5.5-.5c.3-.1.5.2.5.5m.3 12.2c0 .4-.3.6-.6.6-.4 0-.6-.3-.6-.6 0-.4.3-.6.6-.6s.6.3.6.6m-6.9 6.3c0 .3-.2.5-.5.5s-.5-.2-.5-.5.2-.5.5-.5c.2 0 .5.2.5.5m-8.4 2.5c0 .4-.3.6-.6.6-.4 0-.6-.3-.6-.6 0-.4.3-.6.6-.6s.6.3.6.6m-1.7-5.6c0 .4-.3.6-.6.6-.4 0-.6-.3-.6-.6 0-.4.3-.6.6-.6.3-.1.6.2.6.6m-.9 3.6c0 .3-.2.5-.5.5s-.5-.2-.5-.5.2-.5.5-.5c.2-.1.5.2.5.5m-6.3-3c0 .3-.2.5-.5.5s-.5-.2-.5-.5.2-.5.5-.5c.3-.1.5.2.5.5m21.8 10.1c0 .3-.2.5-.5.5s-.5-.2-.5-.5.2-.5.5-.5.5.2.5.5m6.6-4.8c0 .4-.3.6-.6.6-.4 0-.6-.3-.6-.6 0-.4.3-.6.6-.6.3-.1.6.2.6.6m.7 6.2c0 .3-.2.5-.5.5s-.5-.2-.5-.5.2-.5.5-.5c.2-.1.5.2.5.5m26.9-5.9c0 .3-.2.5-.5.5s-.5-.2-.5-.5.2-.5.5-.5c.3-.1.5.2.5.5m-12.5 4.4c0 .3-.2.5-.5.5s-.5-.2-.5-.5.2-.5.5-.5c.2 0 .5.2.5.5m33.7 6.4c0 .3-.2.5-.5.5s-.5-.2-.5-.5.2-.5.5-.5.5.2.5.5"/><path class="st3" d="M197.9 101c0 .4-.3.6-.6.6-.4 0-.6-.3-.6-.6 0-.4.3-.6.6-.6s.6.3.6.6m-5.2 3.5c0 .3-.2.5-.5.5s-.5-.2-.5-.5.2-.5.5-.5.5.3.5.5m5.1 1.1c0 .4-.3.6-.6.6-.4 0-.6-.3-.6-.6 0-.4.3-.6.6-.6.3-.1.6.2.6.6m-5.1 6.2c0 .3-.2.5-.5.5s-.5-.2-.5-.5.2-.5.5-.5.5.2.5.5m13.2-14.3c0 .3-.2.5-.5.5s-.5-.2-.5-.5.2-.5.5-.5.5.2.5.5m1.3 3.2c0 .4-.3.6-.6.6-.4 0-.6-.3-.6-.6 0-.4.3-.6.6-.6s.6.2.6.6m9.1 3.8c0 .4-.3.6-.6.6s-.6-.3-.6-.6c0-.4.3-.6.6-.6s.6.2.6.6m-9.3 6.8c0 .3-.2.5-.5.5s-.5-.2-.5-.5.2-.5.5-.5c.3-.1.5.2.5.5m5.9-5.5c0 .3-.2.5-.5.5s-.5-.2-.5-.5.2-.5.5-.5c.2-.1.5.2.5.5m-1.1 8.4c0 .3-.2.5-.5.5s-.5-.2-.5-.5.2-.5.5-.5.5.3.5.5m2.5-14.1c0 .4-.4.8-.8.8s-.8-.4-.8-.8.4-.8.8-.8.8.4.8.8"/><path class="st3" d="M213.4 97.7l-.2 2.2-2.2.2 2.2.3.3 2.3.2-2.3 2.2-.3-2.2-.2-.3-2.2m-4.8 16.5c0 .4-.4.8-.8.8s-.8-.4-.8-.8.4-.8.8-.8.8.4.8.8"/><path class="st3" d="M207.8 111.7l-.3 2.3-2.2.2 2.3.2.2 2.3.2-2.3 2.2-.2-2.2-.2-.2-2.3m-59.6-64.3c0 .4-.4.8-.8.8s-.8-.4-.8-.8.4-.8.8-.8.8.4.8.8"/><path class="st3" d="M147.4 44.9l-.2 2.3-2.2.2 2.2.3.2 2.3.3-2.3 2.2-.3-2.3-.2-.2-2.3m30.9-17.1c0 .4-.4.8-.8.8s-.8-.4-.8-.8.4-.8.8-.8c.5 0 .8.4.8.8"/><path class="st3" d="M177.5 25.4l-.2 2.2-2.2.2 2.2.3.2 2.3.3-2.3 2.2-.3-2.2-.2-.3-2.2m-35.8 101.7c0 .4-.4.8-.8.8s-.8-.4-.8-.8.4-.8.8-.8c.5 0 .8.4.8.8"/><path class="st3" d="M140.9 124.7l-.2 2.2-2.2.2 2.2.3.2 2.3.3-2.3 2.2-.3-2.2-.2-.3-2.2"/><path class="st4" d="M101.3 94c-3.5 1.7-6.7 3.4-9.4 5.1l1.6.6c2.3-1.4 5.2-3 8.1-4.3m18.3 31.3c-3.2 2.8-6.6 5.8-9.9 9l-.1 2.2c3.1-3.2 6.8-6.6 11.2-10.2"/></svg>