<svg xmlns="http://www.w3.org/2000/svg" viewBox="0 0 340 160"><path fill="#444445" d="M91.537 53.85c-5.8 0-11.8 1.9-16 5.9-5.2 5-7.5 12.2-7.6 19.2-.2 5.9 1 12 4.2 17.1 2.5 4.1 6.4 7.2 11 8.8 5 1.7 10.6 1.8 15.8.4 5.5-1.6 10.3-5.4 12.9-10.5 3.4-6.2 4-13.5 3-20.4-.9-5.5-3.2-10.9-7.4-14.8-4.1-3.8-9.7-5.7-15.2-5.7h-.7zm-69.9 1.9v48.5h8.4v-32.6l25.4 32.6h6.9v-48.5h-7.9v26.7l-21.1-26.7h-11.7zm109.5 0l-17.8 48.5h8.6l12-32.8 12.2 32.8h13l-18.4-48.5h-9.6zm18.5 0l-3.1 8.3 4.4 11.6 1.6-4.2 11.9 32.8h13.7l-18.3-48.5h-10.2zm29.6 0c0 11.2-.1 22.5 0 33.7.2 4.4 1.7 9 5.1 12 3.5 3.2 8.5 4.4 13.1 4.6 4.5.2 9-.3 13.1-2.3 3.8-1.9 6.5-5.5 7.6-9.4 1.4-4.6.7-9.4.8-14.1v-24.6h-8.9v31.8c0 3.1-.3 6.6-2.7 9-2.5 2.2-6.1 2.2-9.3 1.8-3-.4-5.4-2.7-5.9-5.6-1-3.8-.4-7.8-.6-11.7v-25.2h-12.3zm47.8 0v48.5h12.2v-41.7c2.6.1 5.3-.2 7.8.3s4.6 2.2 5.4 4.6c.9 2.5.9 5.5-.1 8-1 2.4-3.6 3.7-6.1 4.2-1.6.4-3.3.5-4.9.7 4.2 8 8.5 16 12.7 24h13.1c-3.9-7.1-7.7-14.3-11.6-21.4 3.3-1.2 6.5-3 8.2-6.1 1.5-2.7 1.8-5.8 1.6-8.8-.4-4-2.7-7.8-6.3-9.9-3-2-6.8-2.5-10.4-2.3-7.2-.1-14.4-.1-21.6-.1zm60.6 0l-19.2 48.5h8.4l5.2-13.4h17.6l5.4 13.4h13.5l-19.6-48.5h-11.3zm-195.8 4.7c.7 0 1.5.2 2.2.4 4 1.2 6.6 5 7.7 8.8 1.3 3.8 1.5 7.8 1.4 11.8-.2 5.3-1.2 10.9-4.9 15-1.8 1.8-4.2 3.2-6.8 3.1-4.6.1-8.1-3.7-9.7-7.6-2.2-5.3-2.4-11.2-1.8-16.9.6-4.5 2-9.3 5.6-12.4 1.8-1.4 4-2.2 6.3-2.2zm198.9 8.3l6 15.2h-12l6-15.2zm-153.4 18.6l-6.2 16.9h7.8l2.4-6.4-4-10.5z"/></svg>