<svg xmlns="http://www.w3.org/2000/svg" viewBox="0 0 340 160"><path d="M56.3 67.3c-2.2-.8-4.3-1.4-6.3-1.9-2-.4-3.9-.6-5.6-.6-2.2 0-3.8.4-5 1.1-1.2.7-1.8 1.6-1.8 2.7 0 .8.3 1.5 1 2.1.7.6 1.8 1.1 3.2 1.7l8.2 3.9c3.2 1.5 5.6 3.2 7.4 5.2 1.7 2 2.5 4.4 2.5 7.2-.1 4.3-1.8 7.8-5.3 10.3-3.4 2.5-8.1 3.7-13.9 3.8-2.2 0-4.5-.1-7.1-.4-2.4-.2-4.9-.7-7.6-1.3v-9c2.6.9 5 1.5 7.4 1.9 2.3.4 4.4.6 6.3.6 2.4 0 4.2-.4 5.4-1.2 1.3-.7 1.9-1.7 1.9-3 0-.7-.2-1.3-.7-1.8-.5-.6-1.3-1.1-2.3-1.6l-9.1-3.8c-3.4-1.5-5.9-3.3-7.5-5.5-1.6-2.1-2.4-4.5-2.4-7.4.1-4 1.8-7.3 5-9.6 3.3-2.4 7.8-3.5 13.4-3.6 2 0 4.2.2 6.4.5 2.3.3 4.4.7 6.4 1.1.1 0 .1 8.6.1 8.6zM79 102.1H65.7V57.9H79v44.2zm42.8-36H102v9.8h17.1v7.4H102v10.3h20.2v8.6H89.3V57.9h32.5v8.2zm62.1 36h-12.4V72.9l-12.9 29.5H151l-12.4-29.5V102h-9V57.9h16.2l11.1 27 11.6-27h15.4v44.2zm42.8-36H207v9.8h17.1v7.4H207v10.3h20.1v8.6h-32.9V57.9h32.5v8.2zm46.7 36h-14.1l-15.8-28.3v28.3h-9V57.9H249l15.4 27.8V57.9h9v44.2zm38.2-34.8c-2.2-.8-4.3-1.4-6.3-1.9-2-.4-3.9-.6-5.6-.6-2.2 0-3.9.4-5.1 1.1-1.2.7-1.8 1.6-1.8 2.7 0 .8.3 1.5.9 2.1.6.6 1.7 1.1 3.4 1.7l8.2 3.9c3.2 1.5 5.6 3.2 7.4 5.3 1.7 2 2.5 4.5 2.5 7.5-.1 4.1-1.8 7.5-5.3 9.9-3.4 2.5-8.2 3.7-14 3.8-2.1 0-4.4-.1-7-.4-2.4-.2-4.9-.7-7.6-1.3v-9c2.6.9 5 1.5 7.4 1.9 2.3.4 4.4.6 6.3.6 2.4 0 4.1-.4 5.4-1.1 1.2-.7 1.8-1.6 1.8-2.7 0-.8-.2-1.6-.7-2.2-.5-.6-1.3-1.2-2.3-1.6l-9-3.8c-3.4-1.5-5.8-3.2-7.5-5.3-1.5-2-2.3-4.5-2.3-7.6.1-4 1.7-7.3 4.9-9.6 3.3-2.4 7.8-3.5 13.4-3.6 1.9 0 4 .2 6.2.5s4.4.7 6.7 1.1v8.6z" fill="#444"/></svg>