<svg xmlns="http://www.w3.org/2000/svg" viewBox="0 0 340 160"><path fill="#444" d="M288.2 58.3h26.3v5.5h-5.2c-2.2 0-4 .8-5.5 2.3l-17.6 18.7v9.1c0 1.5.8 2.3 2.3 2.3h6.5v5.5h-31.7v-5.5h6.5c1.5 0 2.3-.8 2.3-2.3v-8.5l-18-19.3c-1.5-1.5-3.3-2.3-5.5-2.3h-5.1v-5.5h32.2v5.5h-3.2c-.8 0-1.3.3-1.5.8-.2.5-.1 1 .3 1.5L282 77.5l10.6-11.4c.4-.4.5-.9.2-1.5-.2-.5-.7-.8-1.5-.8h-3.2l.1-5.5zm-57.9 43.4h-9l-35.7-30.6v22.7c0 1.5.8 2.3 2.3 2.3h6.5v5.5h-26.7v-5.5h6.5c1.5 0 2.3-.8 2.3-2.3V66.1c0-1.5-.8-2.3-2.3-2.3h-6.5v-5.5h22.4l31.1 26.6V66.1c0-1.5-.8-2.3-2.3-2.3h-6.5v-5.5h26.7v5.5h-6.5c-1.5 0-2.3.8-2.3 2.3v35.6zm-102-46.1C107.9 55.6 94.5 66 94.5 80s13.5 24.4 33.8 24.4c20.3 0 33.8-10.5 33.8-24.4s-13.5-24.4-33.8-24.4zm0 6.5c11.7 0 19.4 7.7 19.4 17.9s-7.7 17.9-19.4 17.9-19.4-7.7-19.4-17.9c0-10.3 7.7-17.9 19.4-17.9zm-52.1-4.4h5.5v14.7h-5.5C73.5 63.3 59.7 62 51.1 62c-7.5 0-13.2 2-13.2 5.8 0 4.4 10.6 4.6 19.2 5.7 11 1.5 27.2 1.2 27.2 15.7 0 11.4-15.1 15.3-24.6 15.3-17 0-22.2-4.8-26.1-4.8-1.1 0-1.6 1-1.6 3.1h-5.5V86.2H32c2.1 9.9 17.4 12.1 23.8 12.1 4.6 0 16.3-.9 16.3-6.3 0-5.1-7.5-4.9-16.7-6.2-10-1.4-29.8-1.7-29.8-15.1C25.5 60.5 37 55.6 50 55.6c15 0 22.5 4.9 24.7 4.9 1-.1 1.5-1 1.5-2.8z"/></svg>