<svg xmlns="http://www.w3.org/2000/svg" viewBox="0 0 253.44 52.56"><switch><g><path d="M244.97 46.952v-9.399l6.525 10.484h.641V36.575l1.085-1.085h-3.275l1.085 1.085v7.975l-5.656-9.06h-2.596l1.064 1.085v10.377l-1.064 1.085h3.276l-1.085-1.085m-9.693.405c-2.51 0-3.382-2.999-3.382-5.593 0-2.595.872-5.594 3.382-5.594 2.53 0 3.402 2.999 3.402 5.594 0 2.594-.872 5.593-3.402 5.593m-5.02-5.593c0 3.19 1.807 6.55 5.02 6.55 3.232 0 5.04-3.36 5.04-6.55s-1.808-6.55-5.04-6.55c-3.212 0-5.02 3.36-5.02 6.55m-5.673 5.274V36.426h2.381l1.34 1.34v-2.275h-8.825v2.275l1.361-1.34h2.36v10.612l-.979.999h3.359l-.997-.999zm-9.29-4.7v4.04c-.298.299-.894.895-2.062.895-2.786 0-4.189-2.808-4.189-5.509 0-2.722 1.766-5.508 4.189-5.508.638 0 1.105.148 1.531.596l1.382 1.36v-2.169c-.744-.383-1.488-.724-2.913-.724-3.424 0-5.827 3.062-5.827 6.444 0 3.317 2.403 6.443 5.827 6.443 1.936 0 2.765-.468 3.445-.914v-4.955l.978-.999h-3.359l.998 1m-18.604 4.614v-9.399l6.602 10.489.565-.005V36.575l1.085-1.085h-3.275l1.084 1.085v7.975l-5.657-9.06h-2.595l1.063 1.085v10.377l-1.063 1.085h3.276l-1.085-1.085m-8.995-11.461l.999 1v10.548l-.999.999h3.38l-.998-.999V36.491l.998-1h-3.38m-11.144 6.251h5.273v5.296l-.999.999h3.381l-.999-.999V36.491l.999-1h-3.381l.999 1v4.316h-5.273v-4.316l.999-1h-3.36l.979 1v10.548l-.979.999h3.36l-.999-.999v-5.297m-5.656 2.808c0-1.234-.575-1.999-1.17-2.404l-2.552-1.85c-.915-.658-1.383-1.509-1.383-2.148 0-1.317 1.127-1.785 1.808-1.785.361 0 .616.148.808.148l1.107 1.191 1.17-1.744-2.488-.468c-.17-.043-.276-.064-.596-.064-2.19 0-3.189 1.871-3.189 3.084 0 .957.488 2.042 1.615 2.87l2.573 1.851c.702.489.894 1.212.894 1.83 0 1.062-.659 2.212-2.083 2.212-.341 0-.64-.064-.874-.171l-1.191-1.403-1.084 1.956 2.402.469s.405.084.746.084c1.509-.001 3.487-1.276 3.487-3.658m-14.04-6.273l1.723 5.188h-3.51l1.787-5.188zm-3.02 8.782l.914-2.658h4.148l.871 2.658-.977.978h3.551l-.999-1.021-3.913-11.525h-.639l-3.978 11.525-1.02 1.021h3.02l-.978-.978m-13.341.978l2.871-9.08 2.786 9.08h.638l3.637-11.547 1.021-1h-3.02l.977.979-2.658 8.676-2.573-8.676.979-.979H141.6l1 1 .255.829-2.403 7.825-2.573-8.676.979-.979h-3.552l1.021 1 3.53 11.547h.637m-18.596-7.519l-.476.459.052.177h1.468c-.23 1.59-.442 2.968-.778 5.193-.477 3.304-.883 4.471-1.219 4.753-.106.105-.282.158-.442.158-.213 0-.548-.158-.778-.265-.212-.105-.388.018-.494.125-.142.158-.3.405-.3.6 0 .354.459.53.76.53.336 0 1.184-.282 1.943-1.219.6-.742 1.413-2.455 2.102-6.448.124-.743.266-1.484.566-3.428l1.801-.177.39-.459h-2.085c.53-3.27.972-4.258 1.73-4.258.531 0 .973.211 1.361.582.123.124.318.124.494-.018.142-.123.354-.406.354-.653.018-.354-.459-.741-1.06-.741-1.025 0-2.103.601-2.845 1.483-.69.83-1.148 2.173-1.396 3.605h-1.148zm-7.949 4.628c0-2.614 1.324-4.03 1.873-4.258.157-.07.406-.142.583-.142.883 0 1.396.672 1.396 2.032.035 2.297-1.166 4.382-1.908 4.629-.143.053-.371.123-.547.123-.991.001-1.397-1.059-1.397-2.384m3.02-5.05c-.46 0-1.183.211-1.907.636-1.22.725-2.545 2.367-2.545 4.84 0 1.237.582 2.615 2.227 2.615.777 0 1.891-.513 2.633-1.184 1.166-1.06 1.854-2.88 1.854-4.452 0-1.467-.778-2.455-2.262-2.455m-20.472-3.602l3.169 5.72v4.828l-.999.999h3.381l-.999-.999v-4.829l3.232-5.699 1.042-1.021h-3.104l.979.979-2.638 4.699-2.51-4.699.979-.979h-3.552l1.02 1zM89.884 47.04V36.428h2.381l1.34 1.34v-2.275H84.78v2.275l1.361-1.34H88.5V47.04l-.977.999h3.359l-.998-.999M78.505 35.493l1 1v10.548l-1 .999h3.383l-1-.999V36.493l1-1h-3.383m-3.634 9.06c0-1.234-.575-1.999-1.17-2.404l-2.553-1.85c-.914-.658-1.382-1.509-1.382-2.148 0-1.317 1.127-1.785 1.808-1.785.361 0 .616.148.808.148l1.106 1.191 1.169-1.744-2.487-.468c-.17-.043-.276-.064-.596-.064-2.191 0-3.19 1.871-3.19 3.084 0 .957.489 2.042 1.616 2.87l2.574 1.851c.701.489.893 1.212.893 1.83 0 1.062-.66 2.212-2.084 2.212-.34 0-.639-.064-.872-.171l-1.191-1.403-1.084 1.956 2.403.469s.404.084.744.084c1.509-.001 3.488-1.276 3.488-3.658m-16.12-8.124h1.531c1.34 0 2.404 1.148 2.404 2.509 0 1.298-1.086 2.318-2.404 2.318h-1.531v-4.827zm0 10.612v-4.848h1.894l3.04 5.848h2.085l-.978-.999-2.808-5.147c1.404-.425 2.361-1.743 2.361-2.935 0-2.126-1.978-3.466-4.062-3.466h-3.891l.977 1v10.548l-.977.999h3.359l-1-1m-5.635.999v-2.297l-1.34 1.361h-3.807v-5.273h2.828l1 .998v-2.934l-1 .999h-2.828v-4.466h3.807l1.34 1.34v-2.275h-7.507l.979 1v10.548l-.979.999h7.507m-16.27-12.546h-3.55l1.021 1 3.529 11.547h.639l3.636-11.547 1.021-1h-3.02l.978.979-2.658 8.676-2.573-8.676.977-.979m-9.738 0l1 1v10.548l-1 .999h3.381l-1-.999V36.494l1-1h-3.381M15.432 46.955v-9.399l6.731 10.484h.435V36.578l1.085-1.085h-3.275l1.084 1.085v7.975l-5.656-9.06h-2.595l1.063 1.085v10.377l-1.063 1.085h3.275l-1.084-1.085M1.312 44.68c0 2.062 1.743 3.637 3.892 3.637 2.042 0 4.061-1.51 4.061-3.637v-8.102l1.063-1.085H7.054l1.084 1.085v8.102c0 1.446-1.148 2.596-2.594 2.596-1.467 0-2.765-1.129-2.765-2.596v-8.102l1.084-1.085H.227l1.085 1.085v8.102M109.9.313v4.168h2.64l4.63 18.629h6.51l3.09-11.66 2.96 11.66h6.5l4.9-18.629h2.51V.313h-8.95v4.168h2.96l-3.22 12.12L130.44.312h-4.12l-4.38 16.418-3.16-12.25H122V.312z"/></g></switch></svg>