<svg xmlns="http://www.w3.org/2000/svg" viewBox="0 0 340 160"><path d="M140.7 143.42h5.694v16.04H140.7v-16.04M125.27 143.42l-6.876 16.04h6.232l.806-2.592h6.124l.86 2.592h6.178l-6.876-16.04h-6.448m1.452 9.828l1.772-5.4 1.88 5.4h-3.652M79.77 155.3h5.104v4.158H79.77V155.3zM73.06 152.44c0 1.458-.322 2.43-.966 3.078-.646.594-1.504.972-2.686.972-1.504 0-2.686-.54-3.332-1.62-.268-.432-.428-1.242-.428-2.322v-9.126h-5.644v10.26c0 2.43.912 4.158 2.686 5.076 1.344.81 3.6 1.242 6.716 1.242 4.404 0 7.144-.972 8.434-2.97.592-.972.966-2.808.966-5.238v-8.37H73.06v9.02M107.55 155.3h5.212v4.158h-5.212V155.3M103.68 150.44l-5.264-1.244c-1.72-.378-2.578-.702-2.848-1.08l-.216-.54c0-.81.806-1.242 2.526-1.242 1.612 0 2.524.432 2.794 1.404l5.534-.27c-.43-2.052-1.612-3.402-3.492-4.05l-4.834-.594c-3.116 0-5.372.594-6.716 1.946-.806 1.026-1.236 1.998-1.236 3.186 0 1.89 1.074 3.24 3.116 4.05l6.822 1.512c.806.27 1.128.648 1.128 1.242 0 .486-.268.81-.806 1.188l-1.934.378c-2.15 0-3.33-.648-3.492-1.836l-5.64.216c.268 1.512.806 2.592 1.666 3.402 1.29 1.188 3.438 1.782 6.554 1.782 4.298 0 7.092-.972 8.326-2.864.538-.81.806-1.728.806-2.808 0-1.89-.914-3.132-2.794-3.778M236.48 151.52c.698-.81 1.074-1.782 1.074-2.97 0-1.782-.644-3.132-1.88-4.05-.966-.702-2.418-1.08-4.46-1.08h-11.658v16.04h5.64v-5.832h3.116l3.224 5.832h6.286l-3.922-6.372c1.128-.378 2.042-.918 2.58-1.566m-6.984-1.512h-4.298v-2.862h4.836c.644 0 1.074.054 1.452.324l.322 1.08c-.002 1.026-.808 1.458-2.312 1.458M254.06 155.3c-1.02.756-2.096 1.08-3.222 1.08-1.558 0-2.794-.54-3.6-1.62-.698-.864-1.074-1.944-1.074-3.294 0-1.62.43-2.916 1.45-3.78.86-.81 2.042-1.296 3.386-1.296.966 0 1.88.27 2.686.756.644.432 1.074.972 1.344 1.674l5.264-.972c-1.128-3.348-4.352-5.02-9.456-5.02-4.04 0-6.93 1.08-8.704 3.132-1.236 1.512-1.88 3.348-1.88 5.508 0 4.05 1.988 6.642 5.91 7.884l4.564.648c4.406 0 7.414-1.242 8.972-3.78l.86-1.998-5.372-.54c-.27.648-.592 1.188-1.128 1.62M268.72 155.79v-2.528h10.2v-3.628h-10.2v-2.592h11.12v-3.62h-16.76v16.04H280v-3.672h-11.28M167.56 151.52c.59-.81.966-1.782.966-2.97 0-1.782-.644-3.132-1.774-4.05-1.02-.702-2.418-1.08-4.512-1.08h-11.604v16.04h5.696v-5.832h2.954l3.33 5.832h6.286l-4.02-6.372c1.128-.27 2.04-.81 2.686-1.566m-6.932-1.512h-4.298v-2.862h4.674c.698 0 1.182.054 1.45.324s.43.648.43 1.08c0 1.026-.696 1.458-2.256 1.458M211.5 143.8c-1.504-.648-3.492-.918-5.91-.918-4.19.108-7.144 1.296-8.864 3.726-.966 1.35-1.45 3.02-1.45 5.02 0 1.89.538 3.402 1.558 4.752 1.664 2.43 4.62 3.618 8.918 3.618 3.332 0 5.91-.702 7.63-2.16l1.88-2.16c.806-1.242 1.182-2.7 1.182-4.32-.002-3.672-1.614-6.21-4.944-7.56m-3.33 12.15c-.592.378-1.344.54-2.202.54-1.612 0-2.902-.54-3.708-1.62-.806-.972-1.128-2.052-1.128-3.402s.322-2.43 1.074-3.348c.86-1.188 2.148-1.728 3.76-1.728 1.666.108 2.954.756 3.76 1.89.592.918.86 1.998.86 3.186 0 2.214-.806 3.672-2.416 4.482M177.66 159.46h5.644v-5.778h9.02v-3.562h-9.02v-3.08h9.82v-3.62H177.66v16.04M109.16 52.972l12.248 25.648 17.414 12.692h22.826l-52.49-38.34M157.35 104.82l-8.588-6.22-14.36 10.48 17.468 12.688 5.48-16.948M183.02 123.66l-14.34-10.478-14.28 10.478 14.28 10.422 14.34-10.422M231.28 46.602l12.3-25.65-73.28 53.57 4.4 13.39 56.58-41.31M233.16 0l-17.9 37.422 26.6-19.342L233.16 0M162.78 87.91l4.4-13.39-73.33-53.57 12.254 25.65 56.68 41.31M160.74 101.14c0 2.16.806 4.05 2.31 5.562 1.558 1.566 3.438 2.376 5.642 2.376 2.258 0 4.136-.81 5.642-2.376 1.558-1.512 2.364-3.402 2.364-5.562 0-2.268-.806-4.158-2.364-5.67-1.504-1.512-3.384-2.322-5.642-2.322-2.202 0-4.082.81-5.642 2.322-1.504 1.512-2.31 3.404-2.31 5.67M203.02 109.08L188.66 98.6l-8.48 6.22 5.428 16.948 17.412-12.688M104.32 0l-8.702 18.08 26.542 19.342L104.32 0zM228.26 52.972l-52.48 38.34h22.824l17.36-12.692 12.296-25.648"/></svg>