<svg viewBox="0 0 193 96" xmlns="http://www.w3.org/2000/svg"><path d="M65.5755 66.6821c-.0591.6586-.4325 1.0055-1.1242 1.0346l-18.263.7207c-.566.0286-.9454-.2065-1.1258-.7187l-9.422-26.9563-9.0165 26.8655c-.212.5755-.5855.838-1.1238.8095L7.962 67.7187c-.6315-.0291-.9618-.3409-.9894-.9448L.9257 4.2909c0-.7489.377-1.1323 1.1243-1.1323h14.97c.6947 0 1.0591.3509 1.0862 1.0416L20.902 43.918l7.4838-33.2737c.1117-.5373.443-.8095.9864-.8095h12.5812c.603 0 .9598.2722 1.0766.8095l7.1214 33.2737 3.0685-40.0778c.028-.7233.421-1.0661 1.1778-1.038l15.0508.7673c.6907.0276 1.04.3915 1.04 1.0827l-4.913 62.0298zm36.2452-19.5629c-1.5924-.1218-2.5512-.1794-2.88-.1794-6.4688 0-9.7007 1.8164-9.7007 5.4563 0 3.062 2.3468 4.5927 7.0407 4.5927 1.6455 0 3.3176-.1468 4.9977-.4476l.5423-9.422zm14.5556-11.7531c0 2.5271-.5339 12.6649-1.618 30.4117 0 .7217-.0752 1.7813-.223 3.1562-.1223.7222-.5168 1.0861-1.1754 1.0861l-11.7201.0893c-.8085 0-1.219-.3925-1.219-1.1754 0-.0582.0947-1.5403.2742-4.4604-3.8198 1.3548-7.7564 2.03-11.8144 2.03-5.2006 0-9.3743-1.0506-12.5265-3.1557-3.7006-2.4971-5.5446-6.2047-5.5446-11.1367 0-5.7105 3.05-9.9488 9.1378-12.7115 4.5752-2.041 10.1393-3.0655 16.6908-3.0655 1.5067 0 3.4123.1508 5.7285.451.0546-1.5422.0847-2.3697.0847-2.493 0-1.7247-.5845-3.1793-1.7563-4.3712-1.1764-1.1944-2.62-1.7944-4.331-1.7944-2.193 0-3.8725.8035-5.0459 2.4074-1.1754 1.606-1.835 2.4164-1.9848 2.451l-13.6649 1.8575c-.9318.1223-1.3974-.2526-1.3974-1.1257.0276-.0592.0817-.18.1398-.3634 1.4476-4.8528 4.0269-8.6682 7.7545-11.4605 3.728-2.7858 8.1138-4.1802 13.162-4.1802 14.0303 0 21.049 5.8533 21.049 17.5534zm33.275 16.2142l-.0847-15.418c-6.8873.1498-10.3312 3.0388-10.3312 8.66 0 4.6273 2.7111 6.941 8.1173 6.941.4832 0 1.246-.0632 2.2986-.183zm17.1784-34.7132c.1454 14.1841.0336 27.626-.3649 40.3039-.2024 6.0076-.3262 9.3037-.3628 9.871-.1745 3.877-.5243 7.1515-1.0376 9.824-1.0796 5.7807-3.6815 10.2771-7.793 13.505-4.116 3.2319-9.1553 4.8554-15.1054 4.8554-3.482 0-6.1946-.397-8.1138-1.175-.5483-.2465-.8154-.6164-.8154-1.1267V78.8113c0-.7528.4315-1.1268 1.266-1.1268.4567 0 1.185.0617 2.1889.1795 1.0064.1163 1.7693.18 2.271.18 7.2437 0 10.877-2.6455 10.877-7.9344V63.574c-2.2625.779-4.721 1.1679-7.4 1.1679-6.7059 0-12.1246-2.0826-16.2762-6.2683-4.1421-4.1762-6.2207-9.608-6.2207-16.3144 0-7.0356 2.4485-12.6042 7.3454-16.7258 4.6008-3.8774 10.4916-5.8152 17.6737-5.8152 1.3588 0 2.8254.1509 4.4182.4526v-3.4263c0-.7263.381-1.0842 1.1268-1.0842l15.197.0867c.748 0 1.1258.408 1.1258 1.22zm24.0277-15.2385l-.6356 48.0147c0 .7217-.3679 1.0861-1.1267 1.0861l-15.5966-.183c-.7523 0-1.1122-.3774-1.0746-1.1262l.9879-47.7916c.032-.7484.408-1.1273 1.1262-1.1273h15.2428c.7378 0 1.1031.379 1.0766 1.1273zm1.7593 60.3663c0 2.1392-1.3032 3.8063-3.9311 5.0072-2.0666.9549-4.2885 1.4355-6.6648 1.4355-2.4956 0-4.7942-.4907-6.9008-1.481-2.6084-1.2677-3.9241-3.002-3.9241-5.2304 0-2.075 1.3307-3.7195 3.9722-4.919 2.1362-.9573 4.3571-1.44 6.6632-1.44 2.3824 0 4.6298.5103 6.768 1.5298 2.6771 1.2635 4.0174 2.9607 4.0174 5.0979z"/></svg>