<svg xmlns="http://www.w3.org/2000/svg" viewBox="0 0 143 48"><path d="M71.7 10.5c-.9-1-1.2-2.3-1-3.8.2-1.4.9-2.7 2.1-3.7 1.2-1 2.5-1.5 4-1.5s2.6.5 3.5 1.5c.9 1 1.2 2.3 1 3.8-.2 1.5-.9 2.7-2.1 3.8-1.2 1-2.5 1.5-4 1.5-1.5-.1-2.7-.6-3.5-1.6m-12.4 4.6c-1.7 0-3.3 1.4-3.6 3.1L54 31.1c-.2 1.4-.9 2.6-2 3.6s-2.4 1.5-3.9 1.5c-1.4 0-2.5-.5-3.4-1.5-.9-1-1.2-2.2-1-3.7l1.1-7.8c0-1.6-1.1-2.8-2.7-2.8h-4.2c-1.6 0-3.1 1.2-3.5 2.8L33.3 31c-.2 1.4-.9 2.7-2 3.7s-2.4 1.5-3.8 1.5-2.5-.5-3.4-1.5c-.9-1-1.2-2.2-1-3.6l2.4-17c.2-1.7-.7-3.4-2.2-4.1 0 0-17.8-7.4-18.9-7.9-1.4-.5-2.7.6-3.2 2.4L.1 8.8c-.5 1.8.6 3.8 2.3 4.5l11.9 4.9-1.8 12.9c-.6 4.3.4 8 3 11.1 2.6 3.1 6.1 4.6 10.4 4.6 4 0 7.6-1.3 10.9-4 2.6 2.7 5.9 4 9.8 4 4.3 0 8.2-1.5 11.7-4.6 3.5-3.1 5.5-6.8 6.1-11.1 0 0 1.9-13.6 1.9-13.8.2-1.2-1.1-2.1-2.9-2.1l-4.1-.1zm17.3 0h-3.7c-1.6 0-3 1.3-3.2 2.8l-3.8 26.9c-.1 1.1 1 1.9 2.6 1.9h3.7c1.6 0 3-1.3 3.2-2.8L79.2 17c.1-1-1-1.9-2.6-1.9m63.8 3.4c-2.1-2.5-5-3.8-8.7-3.8-3.6 0-7 .8-10.4 3.7L123.8 2c.1-1.1-1-2-2.6-2h-3.8c-1.6 0-3.1 1.3-3.3 2.9L108 44.8c-.2 1.1 1 2 2.6 2h3.8c1.6 0 3-1.2 3.3-2.8l1.9-13.1c.4-2.6 1.4-4.6 3-6 1.6-1.4 3.4-2 5.4-2 3.9 0 5.5 2.6 4.7 7.8l-2 14.1c-.1 1.1 1 2 2.6 2h3.8c1.6 0 3.1-1.3 3.3-2.9l2.3-15.3c.6-4.2-.1-7.5-2.3-10.1m-36.6 5.7c.5 0 1-.3 1.5-1l1.8-2.3c.8-1 .8-2.4 0-3.4-.3-.5-1.2-1.1-2.1-1.5l-.1-.1c-2.7-1.4-5.3-2-8.8-1.8-3.8.2-7 1.3-9.6 3.3-2.6 2-4.1 4.6-4.4 7.6-.3 3.1.7 5.4 3.1 6.8 1.1.7 2.1 1.2 3 1.6.9.4 2.2.8 3.9 1.2 1.6.5 2.9 1 3.7 1.5.8.5 1.1 1.1 1 1.7-.1.7-.4 1.2-1 1.6-.7.5-1.5.7-2.6.8-2.9.1-5.6-.5-8.1-2l-1.8-1c-.3-.2-.6-.2-1-.2-.6 0-1.1.3-1.4.7l-2.6 3.5c-.3.4-.4.8-.3 1.2.1.4.3.8.7 1 .8.7 1.7 1.3 2.7 1.8 1.2.7 2.5 1.2 3.8 1.6 2.5.7 5 1 7.3.9 3.6-.2 6.7-1.3 9.2-3.4 2.5-2.1 4-4.8 4.3-8 .3-3.3-.6-5.6-2.8-6.9-1.1-.7-2.1-1.2-2.9-1.5-.8-.3-2.2-.7-4.1-1.3-1.9-.5-3.3-1-4.1-1.4-.7-.4-1-.9-.9-1.6.1-1.3 1.5-2 4-2.2 2-.1 4.1.4 6 1.4.4.2.9.5 1.3.8.5.5.9.7 1.3.6" fill-rule="evenodd"/></svg>