<svg viewBox="0 0 509 89" xmlns="http://www.w3.org/2000/svg"><path d="M303.4 4.8c5.9 0 6.9 1.6 7.1 9.9v72.4h-11c-2.8 0-4.4-.5-5.1-6.4-4.1 4.5-10.2 8-18.5 8-6.1 0-11.5-1.9-15.8-5.7-5.7 3.3-12.9 5.7-19.9 5.7-9.2 0-16-3.5-16-17.7V4.8h9.5c5.8 0 6.8 1.5 6.8 9.9v54.2c0 6.3 2.6 8.1 8 8.1 2.1 0 4.1-.4 6-.9-2.6-4.9-4.1-11.2-4.1-18.8 0-24.8 13.4-33.3 26.9-33.3 8.1 0 12.7 1.6 16.5 5V4.8h9.6zm-9.6 66.1V40.2c-2.7-2-6.2-3.1-11-3.1-7.3 0-14.6 3.6-14.6 19.3 0 14.5 4.1 20 12.5 20 5.2 0 8.6-1.8 13.1-5.5zm-96.5-39c4-4.2 9.8-7.9 17.5-7.8 1.3 0 2.6.2 3.8.6v13.7h-3c-8.6 0-14.8 1.9-18.1 3.7V87H181V25.5h10.9c3 0 4.8.2 5.4 6.4zm163.1-10.3c-5.2 0-9.6-4.1-9.6-9.2s4.3-9.3 9.6-9.3 9.5 4.1 9.5 9.3c0 5.1-4.2 9.2-9.5 9.2zm-203.8 4.9c11.6 4.9 19.8 16.5 19.9 29.9 0 18-14.8 32.4-32.4 32.4-17.7 0-32.4-14.5-32.4-32.4 0-14.2 9.2-26.6 22.3-30.8-2.7 4-4.5 13.2-4.5 18.3-2.6 3.4-4.2 7.8-4.2 12.5 0 11 8.4 19.9 18.7 19.9 3.8 0 7.3-1.2 10.2-3.3-11.7-4.9-19.8-16.4-19.8-29.8 0-7.2 2.3-13.8 6.2-19.1 1.1-.1 2.3-.2 3.4-.2 4.5 0 8.8 1 12.6 2.6zm5.2 36c.6-2 .9-4 .9-6.1 0-9.2-5.8-16.9-13.7-19.2-.6 1.9-.9 4-.9 6.1 0 9.2 5.8 16.9 13.7 19.2zm346.5-7.7c0 2.2-.2 4.8-.2 5.5h-40.7c.8 12.5 6.8 16 16.5 16 7.1 0 12.6-2.3 16.7-5.3h5.4v11.5c-5 2.9-12 6.1-24.6 6.1-8.9 0-16.1-2.3-21.3-6.5-5.8 3.8-13.5 6.5-21.1 6.5-9.1 0-15.9-3.5-15.9-17.6V45.5c0-6.2-2.4-8-7.8-8S405 39 401.1 40.4V87h-16.5v-2.3c-4.8 2.3-10.3 3.8-15.8 3.9h-1.7c-.8-.1-1.6-.1-2.3-.2v-.1c-5-.8-6-3.2-8.4-5.8-5.7 3.5-13.1 6-20.4 6-9.1 0-15.9-3.5-15.9-17.6V4.7h9.4c5.8 0 6.8 1.4 6.8 9.8v54.3c0 6.2 2.6 8 8 8 2.9 0 5.6-.7 8.1-1.5V25.4h9.7c5.8 0 6.6 1.5 6.6 11.1V69c0 4.9 1.7 7 5.1 7.6.8.1 1.7.2 2.6.2 2.8 0 5.5-.7 8-1.5V25.5h10.9c3 0 4.7.3 5.4 5.7 5.9-4.3 13.4-7.2 21.8-7.2 9.1 0 16.9 2.9 16.9 17v30.1c.6 4.4 3.1 5.8 7.8 5.8 2.5 0 4.8-.5 7-1.2-3.1-5.2-4.8-11.6-4.8-19.2 0-20.2 13.1-32.6 30.6-32.6 18.5 0 28.3 10.2 28.3 30.9zm-40.7-5.2H491c-.3-11.1-4.2-14.7-11-14.7-6 0-11.1 3-12.4 14.7zM118.1 11.4c-2.1 0-4 1.6-4.8 3.9L94.4 88.6H73.2L59.7 34h-.3L45.7 88.6H24.5L6.4 14.8c-.7-1.9-2.2-3.4-4.1-3.4h-2V.6h35.4v10.8H25.3L37.6 66h.3L54.3.5h14.9l16.2 65.4h.3l11-46c1.8-5.5.6-8.5-4.3-8.5h-4.6V.6h32.1v10.8h-1.8z"/></svg>