<svg viewBox="0 0 480 480" xmlns="http://www.w3.org/2000/svg" xmlns:xlink="http://www.w3.org/1999/xlink"><defs><path d="M317.5026 123.054h-64.0355c-5.0912-12.2581-12.5748-23.2723-21.8681-32.4598l39.4608-47.1017c22.5106 21.0925 38.9573 48.5787 46.4428 79.5616zM52.3881 279.8478C26.4814 256.159 8.3459 224.1122 2.2499 187.9754l62.9826-5.9718c4.0306 18.6574 13.32 35.3575 26.2394 48.4715L52.388 279.8477zM253.489 29.2003l-38.4817 48.1713c-15.1074-9.5958-32.9918-15.2106-52.177-15.3682L155.5903.0892A163.9382 163.9382 0 0 1 161 0c34.4208 0 66.3188 10.8017 92.489 29.2003zM.1041 166.8471A163.8928 163.8928 0 0 1 0 161c0-34.4273 10.8057-66.3307 29.2106-92.5037l49.037 39.692c-9.5983 15.1897-15.1784 33.1716-15.247 52.4522L.1042 166.847zm43.354-115.8704c23.3802-24.9675 54.6232-42.4814 89.7796-48.592l6.2267 62.1916C121.392 68.7834 105.22 77.9404 92.4551 90.5407l-48.9968-39.564z" id="a"/><path d="M47.596 8H193.5c11.3218 0 20.5 9.1782 20.5 20.5S204.8218 49 193.5 49H46.5208C41.5848 53.3565 35.101 56 28 56 12.536 56 0 43.464 0 28S12.536 0 28 0c7.6292 0 14.5458 3.0513 19.596 8z" id="c"/></defs><g fill="none" fill-rule="evenodd"><circle fill="#B3B4B4" fill-rule="nonzero" cx="240" cy="240" r="240"/><path d="M138.7948 457.681L360.6525 32.4866C432.0287 74.0757 480 151.4357 480 240c0 132.5483-107.4517 240-240 240-36.1602 0-70.4527-7.997-101.2052-22.319z" fill="#A0A1A2" fill-rule="nonzero"/><circle fill="#FFF" fill-rule="nonzero" cx="240" cy="239" r="198"/><g transform="translate(79 78)"><mask id="b" fill="#fff"><use xlink:href="#a"/></mask><use fill="#7FBA01" fill-rule="nonzero" xlink:href="#a"/><path fill="#98C732" fill-rule="nonzero" mask="url(#b)" d="M146.0273-11.94l10.4874 91.6532 62.3927 12.3606 54.5881-71.8436z"/><path fill="#B2D565" fill-rule="nonzero" mask="url(#b)" d="M137.7823-17.1837l10.0301 100.3114L94 101.4468 28.7144 42.1315z"/><path fill="#CBE398" fill-rule="nonzero" mask="url(#b)" d="M20.2933 53.5048L94 118.3838l-15.7413 52.2204-93.5908 10.3994z"/><path fill="#DFEDBF" fill-rule="nonzero" mask="url(#b)" d="M-11.7618 184.7128l100.0811-9.1291 26.476 60.4754L60.126 299.79 6.5574 256.1567z"/></g><g transform="translate(212 210)"><mask id="d" fill="#fff"><use xlink:href="#c"/></mask><use fill="#DD5900" fill-rule="nonzero" xlink:href="#c"/><path fill="#FF8C00" fill-rule="nonzero" mask="url(#d)" d="M0 0h216v28H0z"/></g></g></svg>
