<svg xmlns="http://www.w3.org/2000/svg" viewBox="0 0 396.24 350.48"><g fill="#1ab99b"><path d="m204.89 82.11c0 0 38.974 39.42 27.501 105.45 38.975-15.581 54.11-41.698 58.662-67.859 0 0 13.395-49.51 33.93-70.14-40.804 6.43-44.913-9.643-120.09 32.546"/><path d="m212.7 202.2c.938-5.04 15.939-56.43-13.84-98.22-49.868-55.31-125-63.13-125-63.13 14.644 28.438 15.13 55 31.25 109.11 19.286 56.03 90.94 59.913 96.25 59.913 4.822 7.634 15.849 17.858 41.12 23.17l2.813-13.394c-21.787-4.465-29.777-12.992-32.591-17.635m-70.27-69.29c-5.804-18.75-21.92-50.31-41.03-66.967 0 0 56.654 14.956 89.29 121.12-30.805-9.331-43.975-39.823-48.44-54.24"/></g><g fill="#53585e"><path d="m81.85 20.518c-31.742 14.956-44.42 51.52-44.42 107.15 0 54.823 12.679 91.61 44.42 107.59l-3.527 13.93c-48.752-17.01-70.851-55.05-70.851-121.03 0-65.985 22.1-104.56 70.851-121.34l3.527 13.705"/><path d="m316.59 6.812c48.706 16.742 70.806 54.823 70.806 121.3 0 66.48-22.05 104.07-70.806 121.08l-3.795-13.707c31.742-15.981 44.42-52.814 44.42-107.59 0-55.851-12.679-92.37-44.42-107.15l3.795-13.929"/><path d="m54.874 327c-4.795 1.84-9.905 2.723-15.04 2.601-12.678 0-18.742-5.513-16.773-19.413 1.811-13.11 6.812-18.465 20.04-18.465 5.209-.086 10.389.795 15.277 2.598l-1.812 7.875h-11.812c-5.355 0-7.166 1.812-7.875 8.308-.945 7.167.275 8.467 5.512 8.467 3.945.021 7.888-.176 11.812-.592l.67 8.621"/><path d="m101.14 311.3c-1.969 13.545-7.442 18.311-21.22 18.311s-19.687-5.198-17.6-19.333c2.087-14.13 7.403-18.545 21.341-18.545s19.45 5.355 17.442 19.687m-25.12-.001c-1.023 7.402-.354 9.135 4.331 9.135 4.686 0 6.06-2.244 7.206-10.119 1.142-7.521.354-9.253-3.937-9.253-4.292 0-6.221 1.812-7.442 10.276"/><path d="m142.95 328.74h-10.356v-6.06c-3.663 3.995-8.694 6.469-14.1 6.931-8.386 0-12.166-5.946-10.355-19.688 1.969-15.04 7.875-18.15 15.749-18.15 3.882-.008 7.757.334 11.576 1.025-.102-2.474.003-4.948.315-7.403l1.221-7.323h13.19l-7.244 50.673m-13.663-28.507c-5.512 0-6.812 1.143-7.875 9.488-.866 6.537-1.024 9.136 2.244 8.899 3.075-.345 5.938-1.734 8.111-3.938l1.968-14.607-4.448.158"/><path d="m188.19 326.73c-5.253 2.044-10.861 3.02-16.497 2.875-15.355 0-19.687-6.734-18.15-19.333 1.654-14.961 8.466-18.545 21.419-18.545 14.175 0 17.954 4.725 16.773 12.953-1.024 6.733-5.551 8.702-15.04 9.411l-9.765.708c0 3.938 2.01 4.567 6.06 4.567 3.189 0 10-.354 14.332-.865l.867 8.229m-14.41-19.412c3.268-.274 5-.787 5.276-3.937.236-2.402-.709-2.835-4.332-2.758-4.41 0-5.866 1.38-7.01 7.247l6.06-.552"/></g><g fill="#1ab99b"><path d="m220.05 282.59c-4.409 0-6.22 1.023-6.889 5.63l-.788 5.197h10.946l-.906 5.435h-10.789l-4.764 33.939c-.18 5.912-5.118 10.56-11.03 10.38-.154-.005-.31-.014-.465-.024-2.923-.024-5.842-.222-8.742-.592l1.103-5.196h5.434c4.331 0 6.142-1.024 6.812-5.631l4.646-32.838h-6.3l.472-5.118 6.458-.354.866-6.3c.195-5.889 5.13-10.506 11.02-10.31.187.007.373.018.557.033 3.459-.041 6.918.131 10.355.511l-1.141 5.198-6.853.04"/><path d="m253.04 299.09h-1.968c-3.938 0-7.876 2.678-13.979 7.167l-3.11 22.521h-7.01l5-35.437h5.354l-.354 8.111c5.631-5.787 11.143-9.06 15.749-9.06h1.89l-1.574 6.694"/><path d="m287.57 327.6c-4.704 1.446-9.608 2.138-14.529 2.048-12.244 0-16.419-6.301-14.686-19.489 1.732-13.191 6.732-17.68 19.687-17.68 11.575 0 14.411 4.331 13.387 11.458-1.023 7.126-5.394 9.528-13.898 10.197l-12.245 1.103c0 7.088 3.269 8.544 8.898 8.544 3.937 0 8.978-.434 13.03-.866l.354 4.685m-10.04-18.663c4.332-.275 6.221-1.496 6.812-5.552.669-4.843-1.811-5-7.441-5-7.166 0-9.607 1.968-11.143 11.811l11.772-1.259"/><path d="m306.94 311.22c-5.079-2.402-7.441-5.119-6.812-10.277.788-6.733 5.631-8.622 14.923-8.465 5.061.08 10.111.487 15.12 1.22l-.867 4.923c-4.487 0-8.7-.275-14.06-.355-5.354-.077-7.874 0-8.308 3.111-.434 3.109 1.3 3.425 4.213 4.725l9.687 4.331c5.512 2.521 7.874 4.765 7.01 10.197-1.062 7.876-6.812 8.82-16.733 8.82-4.65.06-9.297-.244-13.899-.905l.788-5.198c3.268.276 7.874.354 11.06.354 8.899 0 11.222-.708 11.812-3.622.592-2.914-1.299-3.03-4.409-4.489l-9.529-4.37"/><path d="m349.23 291.96c-.41 2.931-.988 5.837-1.733 8.7 6.143-5.433 11.3-8.188 16.341-8.188 4.324-.464 8.205 2.666 8.669 6.989.111 1.038.016 2.089-.283 3.09l-3.937 26.341h-6.931l3.387-24.608c.591-4.41-.236-5.709-3.269-5.709-4.331 0-8.544 2.953-14.607 7.875l-3.11 22.561h-7.01l7.167-50.674h6.929l-1.614 13.623"/></g></svg>