<svg xmlns="http://www.w3.org/2000/svg" width="120" height="24" viewBox="0 0 120 24">
    <path fill="#212529" fill-rule="evenodd" d="M23.166 10.228V21.12c0 1.13-.915 2.046-2.046 2.046H2.046A2.045 2.045 0 0 1 0 21.12V2.046C0 .916.915 0 2.046 0H21.12c1.13 0 2.046.915 2.046 2.046v2.108L19.923 5.63V3.475H3.475v16.448h16.448V12.05l-7.877 3.471v-3.388l-7.181 3.165v-1.099L15.52 7.37v2.824l7.645-3.475v3.51zm19.923.197v8.456c-2.097 1.094-4.445 1.55-6.815 1.55-5.037 0-8.706-3.305-8.706-8.478s3.669-8.478 8.706-8.478c2.552 0 4.808.57 6.426 2.074l-2.507 2.735c-.957-1.003-2.12-1.527-3.92-1.527-3.03 0-5.013 2.188-5.013 5.196 0 3.008 1.982 5.196 5.014 5.196 1.55 0 2.689-.433 3.35-.798v-2.683h-2.79v-3.243h6.255zm2.548 9.498V9.035h3.475v10.888h-3.475zm-.232-14.465c0-1.094.89-1.983 1.983-1.983 1.094 0 1.983.889 1.983 1.983a1.984 1.984 0 0 1-1.983 1.982 1.984 1.984 0 0 1-1.983-1.982zm13.668 3.577v2.78h-2.78v3.475c0 1.185.036 2.133 1.517 2.133.365 0 1.199-.076 1.495-.349v2.849c-.752.273-1.7.371-2.497.371-2.28 0-4.034-.967-3.99-3.383v-5.096h-2.084v-2.78h2.085V5.56h3.474v3.475h2.78zm2.085 10.888V3.938h6.202c3.35 0 5.845 1.622 5.845 4.865 0 3.243-2.164 4.865-5.56 4.865h-2.78v6.255h-3.707zm3.707-13.205v3.938h2.316c1.254 0 2.549-.231 2.549-1.853 0-1.853-1.644-2.085-3.012-2.085h-1.853zm9.498 13.205V9.035h3.475v1.687h.028c.73-1.344 1.71-2.035 3.215-2.035.388 0 .84.025 1.158.116v3.128c-.478-.137-1-.252-1.502-.252-2.598 0-2.917 1.505-2.9 3.715v4.529h-3.474zm9.498 0V9.035h3.475v10.888H83.86zm-.18-14.465c0-1.094.889-1.983 1.983-1.983s1.983.889 1.983 1.983a1.984 1.984 0 0 1-1.983 1.982 1.984 1.984 0 0 1-1.983-1.982zm5.972 14.465V9.035h3.243v1.39c.456-.866 1.58-1.738 3.243-1.738 1.55 0 2.882.625 3.475 1.97.798-1.414 1.834-1.986 3.475-1.97 3.008-.016 3.926 2.06 3.938 4.75v6.486h-3.475v-6.37c0-1.026-.343-1.874-1.46-1.874-1.573 0-2.015 1.085-2.015 2.452v5.792H96.6v-5.76c0-.82.045-2.484-1.527-2.484-1.778 0-1.946 1.364-1.946 2.8v5.444h-3.474zm27.451-3.591l2.317 1.853c-1.094 1.39-2.84 2.085-4.617 2.085-3.419 0-6.154-2.255-6.154-5.787 0-3.533 2.735-5.796 6.138-5.796 3.206 0 5.212 2.263 5.212 5.792v1.042h-7.992c.273 1.3 1.314 2.175 2.636 2.175 1.117 0 1.89-.59 2.46-1.364zm-5.096-3.127h4.633c.023-1.115-.97-2.085-2.2-2.085-1.505 0-2.342 1.038-2.433 2.085z"/>
</svg>
