<svg height="32" viewBox="0 0 780 118" width="210" xmlns="http://www.w3.org/2000/svg"><g fill="none" fill-rule="evenodd"><g fill="#517c9f"><path d="m153.995 58.583c3.12 0 5.967-.09 8.445-2.2 2.386-2.022 3.582-4.96 3.582-7.992 0-3.213-1.562-6.24-4.13-7.984-2.664-1.93-5.42-2.02-8.448-2.02h-6.89v20.197h7.44zm-.92-31.583c5.873 0 12.58.734 17.444 4.316 5.507 4.04 8.078 10.28 8.078 17.075 0 5.788-2.2 11.387-6.336 15.425-4.772 4.865-10.1 6.062-16.71 6.062h-8.997v12.21h7.16v10.468h-26.714v-10.468h7.072v-44.623h-7.072v-10.465h26.076z"/><path d="m189.425 27h11.203v11.843h-11.203zm11.203 55.088h6.334v10.467h-23.962v-10.467h6.425v-28.094h-6.334v-10.468h17.538v38.562z"/><path d="m240.777 92.03h-11.752l-15.055-38.563h-5.97v-10.467h22.862v10.468h-4.957l8.996 24.785h.093l9.64-24.785h-5.234v-10.468h22.585v10.468h-5.782l-15.426 38.56"/><path d="m333.913 82.088h8.905v10.467h-20.105v-38.56h-7.713v-10.47h7.713v-16.525h11.2v16.526h8.356v10.468h-8.357v28.094"/><path d="m387.133 67.524c0-8.08-6.704-14.596-14.783-14.596-8.35 0-14.78 6.885-14.78 15.146 0 7.987 6.7 14.596 14.595 14.596 8.447 0 14.968-6.794 14.968-15.146zm-.185 18.175c-3.578 5.415-9.365 7.896-15.788 7.896-14.05 0-25.16-11.658-25.16-25.522 0-14.229 11.386-26.073 25.71-26.073 6.333 0 11.843 2.937 15.238 8.266v-6.98h17.535v10.468h-6.15v28.094h6.15v10.467h-17.535v-6.615z"/><path d="m428.994 82.088h6.338v10.467h-24.332v-10.467h6.793v-44.623h-6.334v-10.465h17.534v55.088"/></g><g fill="#de752c"><path d="m469.04 82.088h7.16v10.467h-26.807v-10.467h7.163v-43.98h-9.642v9.55h-9.914v-20.658h51.595v20.657h-9.913v-9.547h-9.64v43.978"/><path d="m509.71 51.907c2.846-5.78 8.355-8.628 14.69-8.907v11.477c-3.582.186-6.887 1.103-9.64 3.58-3.672 3.123-4.225 7.07-4.225 11.66v12.397h6.335v10.466h-23.87v-10.465h6.334v-28.095h-6.334v-10.468h16.71z"/><path d="m568.13 67.524c0-8.08-6.703-14.596-14.782-14.596-8.355 0-14.78 6.885-14.78 15.146 0 7.987 6.7 14.596 14.595 14.596 8.447 0 14.968-6.794 14.968-15.146zm-.18 18.176c-3.582 5.415-9.366 7.896-15.792 7.896-14.05 0-25.156-11.658-25.156-25.522-.002-14.23 11.38-26.074 25.703-26.074 6.334 0 11.844 2.937 15.243 8.266v-6.98h17.535v10.468h-6.153v28.094h6.153v10.467h-17.535v-6.615z"/><path d="m638.22 75.968c-3.032 10.377-13.59 17.81-24.33 17.81-14.232 0-25.89-11.476-25.89-25.798 0-13.586 10.74-25.98 24.694-25.98 5.51 0 10.376 2.203 14.05 6.15v-4.68h9.64v16.34h-10.467c-1.38-2.02-3.214-3.672-5.233-4.867-2.112-1.195-4.5-1.834-6.977-1.834-8.355 0-14.51 6.702-14.51 14.87 0 8.357 6.61 14.783 14.785 14.783 4.773 0 9.637-2.478 11.75-6.795h12.488"/><path d="m734.395 63.576c-1.93-7.07-8.168-11.567-15.424-11.567-6.607 0-12.94 5.14-14.322 11.566h29.747zm8.54 14.506c-3.858 9.365-12.942 15.697-23.136 15.697-14.324 0-25.8-11.2-25.8-25.616.001-14.501 10.928-26.163 25.524-26.163 6.793 0 13.588 3.03 18.364 7.896 4.865 5.143 6.885 11.384 6.885 18.36l-.368 3.95h-39.662c1.47 6.794 7.71 11.75 14.69 11.75 4.866 0 9.087-1.835 11.845-5.874h11.657z"/><path d="m764.713 51.907c2.843-5.78 8.353-8.628 14.687-8.907v11.477c-3.582.186-6.885 1.103-9.64 3.58-3.674 3.123-4.225 7.07-4.225 11.66v12.397h6.335v10.466h-23.87v-10.465h6.337v-28.095h-6.337v-10.468h16.713z"/><path d="m43.135 27.623 13.13 22.736c2.086-.557 4.358-.395 6.43.574l6.9-11.956-11.535-19.977-15.06 8.697z"/><path d="m23.006 57.248h26.267c.21-.785.513-1.555.936-2.29.714-1.233 1.67-2.24 2.77-3.005l-6.902-11.953h-23.077v17.393h.006z"/><path d="m66.764 64.275c-.717 1.238-1.67 2.24-2.764 3.003l6.906 11.965h23.07v-17.243h-26.276c-.21.778-.514 1.544-.934 2.275"/><path d="m65 52.748c1.593 1.59 2.542 3.674 2.732 5.855h13.8l11.538-19.978-14.935-8.625z"/><path d="m38.938 88.602 13.14-22.758c-1.588-1.588-2.536-3.667-2.73-5.844h-13.81l-11.538 19.972 15.06 8.702z"/><path d="m74.466 91.314-13.126-22.744c-2.085.563-4.363.402-6.436-.57l-6.904 11.96 11.53 19.973 15.063-8.693z"/></g><path d="m58.81 0c-32.43 0-58.81 26.38-58.81 58.8 0 32.432 26.38 58.817 58.81 58.817 32.423 0 58.804-26.385 58.804-58.818 0-32.42-26.38-58.8-58.805-58.8zm0 11.91c25.898 0 46.894 20.99 46.894 46.89 0 25.91-20.996 46.91-46.895 46.91-25.905 0-46.902-21-46.902-46.91 0-25.9 20.997-46.89 46.9-46.89z" fill="#517c9f"/><path d="m287.832 42c-14.268 0-25.832 11.564-25.832 25.826 0 14.27 11.564 25.833 25.832 25.833 14.265 0 25.832-11.565 25.832-25.834 0-14.262-11.567-25.826-25.832-25.826zm0 11.003c8.178 0 14.825 6.65 14.825 14.823 0 8.18-6.647 14.828-14.825 14.828-8.175 0-14.827-6.65-14.827-14.828 0-8.172 6.652-14.823 14.827-14.823z" fill="#517c9f"/><path d="m686.163 82.088-14.325-15.06 13.495-13.034h5.968v-10.468h-24.141v9.365h5.048l-12.578 12.58v-38.471h-17.63v10.465h6.427v44.623h-6.427v10.467h17.628v-23.323l11.66 12.856h-4.13v10.467h26.716v-10.467h-7.71" fill="#de752c"/></g></svg>